<svg xmlns="http://www.w3.org/2000/svg" data-name="&amp;lt;Layer&amp;gt;" viewBox="0 0 2584 1938"><g data-name="Ñëîé 2" fill="#000000" class="color000 svgShape"><path fill="#b86242" d="M900.22,1552.4a3.23,3.23,0,0,1,0-6.46c13.8-.18,27.89-.6,41.88-1.22a3.18,3.18,0,0,1,3.38,3.08,3.23,3.23,0,0,1-3.09,3.37c-14.06.63-28.21,1-42.08,1.23Zm-42-.12h-.07c-14.15-.28-28.3-.81-42.06-1.57a3.23,3.23,0,1,1,.36-6.44c13.68.75,27.75,1.27,41.83,1.55a3.23,3.23,0,0,1-.06,6.46Zm125.9-3.64a3.23,3.23,0,0,1-.25-6.45c13.87-1,27.92-2.33,41.76-3.81a3.23,3.23,0,0,1,.68,6.43c-13.9,1.47-28,2.76-41.95,3.82Zm-209.72-1a1.62,1.62,0,0,1-.31,0c-14.24-1.34-28.33-3-41.86-4.83a3.23,3.23,0,0,1,.89-6.4c13.43,1.85,27.42,3.47,41.58,4.81a3.23,3.23,0,0,1-.3,6.44Zm293.26-7.87a3.23,3.23,0,0,1-.44-6.43c13.92-1.92,27.85-4.06,41.41-6.38a3.23,3.23,0,0,1,1.09,6.37c-13.63,2.33-27.63,4.48-41.62,6.4A2.12,2.12,0,0,1,1067.69,1539.74Zm-376.43-3.69a3.05,3.05,0,0,1-.6-.06c-14.12-2.66-28-5.67-41.21-9a3.23,3.23,0,0,1,1.55-6.27c13.11,3.26,26.85,6.25,40.85,8.89a3.23,3.23,0,0,1-.59,6.4Zm459.22-10.45a3.23,3.23,0,0,1-.65-6.4c13.9-2.85,27.64-5.94,40.86-9.18a3.23,3.23,0,0,1,1.54,6.28c-13.3,3.25-27.12,6.36-41.1,9.23A2.88,2.88,0,0,1,1150.48,1525.6Zm-540.65-9.95a3.45,3.45,0,0,1-1-.15c-13.82-4.46-27.16-9.38-39.65-14.6a3.23,3.23,0,0,1,2.5-6c12.31,5.16,25.48,10,39.14,14.4a3.23,3.23,0,0,1-1,6.31ZM1232,1505.57a3.23,3.23,0,0,1-.9-6.34c13.75-4,27.17-8.22,39.89-12.61a3.23,3.23,0,0,1,2.11,6.11c-12.82,4.42-26.35,8.69-40.2,12.71A3.11,3.11,0,0,1,1232,1505.57ZM532.59,1483a3.3,3.3,0,0,1-1.55-.39,314.85,314.85,0,0,1-35.75-22.77,3.23,3.23,0,1,1,3.84-5.19,307.39,307.39,0,0,0,35,22.29,3.23,3.23,0,0,1-1.56,6.06Zm778.78-5a3.23,3.23,0,0,1-1.24-6.22c13.49-5.61,26.23-11.49,37.87-17.5a3.23,3.23,0,1,1,3,5.74c-11.79,6.09-24.7,12-38.35,17.73A3.23,3.23,0,0,1,1311.37,1478.05Zm-845.71-45.2a3.18,3.18,0,0,1-2.3-1,367.36,367.36,0,0,1-27.89-31.83,3.23,3.23,0,1,1,5.09-4,364.24,364.24,0,0,0,27.4,31.27,3.23,3.23,0,0,1,0,4.57A3.19,3.19,0,0,1,465.66,1432.85Zm-51.46-66.09a3.24,3.24,0,0,1-2.77-1.55,380.42,380.42,0,0,1-19.92-37.34,3.23,3.23,0,0,1,5.87-2.72A371.9,371.9,0,0,0,417,1361.86a3.21,3.21,0,0,1-1.08,4.43A3.18,3.18,0,0,1,414.2,1366.76Zm-35.31-76a3.22,3.22,0,0,1-3.06-2.2,415.2,415.2,0,0,1-11.48-40.71,3.23,3.23,0,0,1,6.3-1.44A407.9,407.9,0,0,0,382,1286.5a3.24,3.24,0,0,1-2,4.1A3.37,3.37,0,0,1,378.89,1290.77ZM360.16,1209a3.23,3.23,0,0,1-3.2-2.81c-1.77-13.79-2.94-28-3.47-42.13a3.24,3.24,0,0,1,3.11-3.35,3.14,3.14,0,0,1,3.35,3.11c.52,14,1.67,28,3.42,41.54a3.23,3.23,0,0,1-2.79,3.62Zm-3.2-83.81h-.15a3.23,3.23,0,0,1-3.08-3.38c.67-13.9,1.93-28.06,3.76-42.1a3.23,3.23,0,1,1,6.4.83c-1.8,13.87-3,27.86-3.7,41.58A3.25,3.25,0,0,1,357,1125.23ZM367.72,1042a3.11,3.11,0,0,1-.67-.07,3.22,3.22,0,0,1-2.49-3.82c2.86-13.65,6.29-27.45,10.21-41a3.23,3.23,0,1,1,6.2,1.79c-3.87,13.39-7.26,27-10.09,40.52A3.23,3.23,0,0,1,367.72,1042ZM391,961.31a3.16,3.16,0,0,1-1.12-.2A3.23,3.23,0,0,1,388,957c4.85-13.12,10.25-26.26,16.06-39.06a3.23,3.23,0,1,1,5.88,2.67c-5.74,12.66-11.08,25.66-15.88,38.63A3.24,3.24,0,0,1,391,961.31Zm34.66-76.45a3.29,3.29,0,0,1-1.54-.39,3.24,3.24,0,0,1-1.3-4.38c6.69-12.34,13.91-24.58,21.44-36.39a3.23,3.23,0,1,1,5.44,3.48c-7.45,11.67-14.58,23.78-21.2,36A3.23,3.23,0,0,1,425.66,884.86Zm45.15-70.76a3.23,3.23,0,0,1-2.59-5.15c8.39-11.28,17.28-22.37,26.42-33a3.23,3.23,0,0,1,4.89,4.22c-9,10.47-17.83,21.43-26.12,32.58A3.24,3.24,0,0,1,470.81,814.1Zm54.87-63.51a3.23,3.23,0,0,1-2.28-5.51c10-9.94,20.39-19.6,31-28.69a3.23,3.23,0,0,1,4.2,4.91c-10.48,9-20.79,18.52-30.63,28.35A3.24,3.24,0,0,1,525.68,750.59ZM589.4,696a3.23,3.23,0,0,1-1.91-5.83c11.36-8.3,23.15-16.24,35-23.58a3.23,3.23,0,1,1,3.39,5.5c-11.76,7.25-23.41,15.09-34.62,23.29A3.25,3.25,0,0,1,589.4,696Z" class="colorb86242 svgShape"/><path fill="#b86243" d="M1687.3,1163.53a3.23,3.23,0,0,1-.8-6.36c13.3-3.39,26.81-7.3,40.15-11.61a3.23,3.23,0,1,1,2,6.14c-13.47,4.36-27.11,8.31-40.54,11.73A3.19,3.19,0,0,1,1687.3,1163.53Zm79.88-25.82a3.23,3.23,0,0,1-1.17-6.23c12.9-5.06,25.84-10.58,38.46-16.41a3.23,3.23,0,1,1,2.71,5.87c-12.74,5.88-25.8,11.45-38.82,16.55A3.21,3.21,0,0,1,1767.18,1137.71Zm76.26-35.17a3.23,3.23,0,0,1-1.52-6.08c12.27-6.55,24.48-13.54,36.29-20.76a3.23,3.23,0,0,1,3.37,5.52c-11.92,7.28-24.23,14.33-36.62,20.94A3.17,3.17,0,0,1,1843.44,1102.54Zm71.6-43.83a3.23,3.23,0,0,1-1.85-5.88c11.46-8,22.73-16.4,33.5-25a3.23,3.23,0,0,1,4,5.05c-10.87,8.65-22.25,17.13-33.82,25.21A3.24,3.24,0,0,1,1915,1058.71Zm65.61-52.31a3.23,3.23,0,0,1-2.18-5.61c10.39-9.47,20.42-19.3,29.83-29.22A3.23,3.23,0,1,1,2013,976c-9.52,10-19.66,20-30.16,29.54A3.2,3.2,0,0,1,1980.65,1006.4Zm57.65-60.95a3.23,3.23,0,0,1-2.51-5.26c8.86-11,17.18-22.28,24.73-33.56a3.23,3.23,0,1,1,5.37,3.59c-7.66,11.44-16.09,22.89-25.07,34A3.25,3.25,0,0,1,2038.3,945.45Zm46.52-69.77a3.17,3.17,0,0,1-1.52-.38,3.23,3.23,0,0,1-1.33-4.37,372.62,372.62,0,0,0,17.54-37.72,3.23,3.23,0,1,1,6,2.39A380.07,380.07,0,0,1,2087.67,874,3.23,3.23,0,0,1,2084.82,875.68Zm30.79-77.9a3.44,3.44,0,0,1-.83-.11,3.23,3.23,0,0,1-2.29-3.95A390.89,390.89,0,0,0,2121,753a3.23,3.23,0,1,1,6.38,1,395.63,395.63,0,0,1-8.67,41.42A3.23,3.23,0,0,1,2115.61,797.78Zm12.61-82.85h-.13a3.23,3.23,0,0,1-3.1-3.36c.17-4.4.26-8.88.26-13.31,0-9.45-.39-19-1.17-28.24a3.23,3.23,0,1,1,6.43-.54c.8,9.47,1.2,19.15,1.2,28.78,0,4.52-.09,9.08-.26,13.56A3.24,3.24,0,0,1,2128.22,714.93Zm-7.13-83.45a3.23,3.23,0,0,1-3.16-2.54,296.65,296.65,0,0,0-11.6-39.81,3.23,3.23,0,1,1,6.06-2.24,303.32,303.32,0,0,1,11.86,40.68,3.23,3.23,0,0,1-2.47,3.84A3.37,3.37,0,0,1,2121.09,631.48ZM2092,553.09a3.23,3.23,0,0,1-2.84-1.68,272.09,272.09,0,0,0-22.66-34.7,3.23,3.23,0,1,1,5.12-3.94,278.28,278.28,0,0,1,23.2,35.53,3.23,3.23,0,0,1-2.82,4.79Zm-51-66.29a3.26,3.26,0,0,1-2.23-.89,279.71,279.71,0,0,0-32-26.29,3.23,3.23,0,0,1,3.72-5.28,286.81,286.81,0,0,1,32.79,26.89,3.23,3.23,0,0,1-2.23,5.57Zm-68.31-48.27a3.26,3.26,0,0,1-1.48-.36,335.39,335.39,0,0,0-38.06-16.62,3.23,3.23,0,1,1,2.21-6.07,339.9,339.9,0,0,1,38.81,16.95,3.23,3.23,0,0,1-1.48,6.1ZM1894.1,409.6a3.44,3.44,0,0,1-.77-.09c-13.13-3.21-26.89-5.85-40.88-7.86a3.23,3.23,0,1,1,.91-6.4c14.21,2,28.17,4.73,41.51,8a3.23,3.23,0,0,1-.77,6.36Z" class="colorb86243 svgShape"/><path fill="#b86242" d="M474.65 604.53a3.23 3.23 0 01-3.23-3.23V585.59a3.23 3.23 0 016.46 0V601.3A3.22 3.22 0 01474.65 604.53zM500 617.74H485.72a3.23 3.23 0 010-6.46H500a3.23 3.23 0 010 6.46zM474.65 646a3.23 3.23 0 01-3.23-3.23c0-11.35-.16-14.4-.23-15.18a3.2 3.2 0 01.13-2.15 3.26 3.26 0 013.63-1.91c2.93.6 2.93.6 2.93 19.24A3.22 3.22 0 01474.65 646zM462.87 616.67H448.94a3.23 3.23 0 010-6.46h13.93a3.23 3.23 0 110 6.46zM581.44 1112.43a3.23 3.23 0 01-3.23-3.23v-11.88a3.23 3.23 0 116.46 0v11.88A3.22 3.22 0 01581.44 1112.43zM600.62 1122.42h-10.8a3.23 3.23 0 010-6.46h10.8a3.23 3.23 0 010 6.46zM581.44 1143.76a3.23 3.23 0 01-3.23-3.23c0-8.34-.11-10.71-.16-11.35a3.24 3.24 0 013.78-4c2.84.59 2.84.59 2.84 15.33A3.23 3.23 0 01581.44 1143.76zM572.53 1121.61H562a3.23 3.23 0 010-6.46h10.53a3.23 3.23 0 010 6.46zM1392.05 1536.08a3.23 3.23 0 01-3.23-3.23v-19.57a3.23 3.23 0 016.46 0v19.57A3.22 3.22 0 011392.05 1536.08zM1423.62 1552.53h-17.79a3.23 3.23 0 010-6.46h17.79a3.23 3.23 0 010 6.46zM1392.05 1587.65a3.23 3.23 0 01-3.23-3.23c0-14.43-.21-18.13-.3-19a3.23 3.23 0 013.75-4.13c3 .62 3 .62 3 23.17A3.22 3.22 0 011392.05 1587.65zM1377.38 1551.2H1360a3.23 3.23 0 010-6.46h17.34a3.23 3.23 0 010 6.46zM2253.45 859.21h-18.51a3.23 3.23 0 010-6.46h18.51a3.23 3.23 0 010 6.46zM1923.25 897.34h-.94c-14.5-.23-29.8-5.8-43.07-15.68s-23-22.94-27.36-36.77c-4.49-14.2-2.86-27.55 4.61-37.57 15.16-20.36 50-20.14 77.75.49s37.91 54 22.75 74.35h0C1949.68 892 1937.72 897.34 1923.25 897.34zm-33-98.79c-11.88 0-22.29 4.18-28.57 12.61s-7.48 19.6-3.63 31.77c4 12.55 12.87 24.46 25.06 33.54s26.16 14.19 39.32 14.4c12.78.24 23.2-4.27 29.39-12.58h0c13-17.5 3.42-46.8-21.43-65.31C1917.5 803.39 1903 798.55 1890.24 798.55z" class="colorb86242 svgShape"/><path fill="#b86242" d="M1914.81,912.84c-14.33,0-31.1-5.74-46.17-17-27.7-20.63-39.31-52.1-25.86-70.16,5.12-6.88,14.65-19.79,14.65-19.79l5.2,3.84s-9.54,12.92-14.67,19.81c-11.32,15.2-.31,42.62,24.54,61.12s54.28,21.2,65.6,6c4.43-6,14.08-18.81,14.08-18.81l5.16,3.88s-9.63,12.84-14.06,18.79C1937.14,908.8,1926.84,912.84,1914.81,912.84Z" class="colorb86242 svgShape"/><path fill="#b86242" d="M1871 891.62a3.18 3.18 0 01-1.93-.65 3.22 3.22 0 01-.66-4.51l7.54-10.13a3.23 3.23 0 015.18 3.86l-7.54 10.12A3.19 3.19 0 011871 891.62zM1856.79 879.23a3.22 3.22 0 01-2.58-5.16l7.53-10.13a3.23 3.23 0 015.18 3.86l-7.53 10.13A3.24 3.24 0 011856.79 879.23zM1847.77 866.62a3.23 3.23 0 01-2.59-5.16l9-12.13a3.23 3.23 0 115.18 3.85l-9 12.13A3.19 3.19 0 011847.77 866.62zM1842.78 852.57a3.23 3.23 0 01-2.59-5.16L1850 834.3a3.23 3.23 0 015.18 3.86l-9.76 13.11A3.21 3.21 0 011842.78 852.57zM1887.39 902.28a3.23 3.23 0 01-2.58-5.16l7.54-10.13a3.23 3.23 0 015.18 3.86L1890 901A3.24 3.24 0 011887.39 902.28zM1901.59 908a3.23 3.23 0 01-2.59-5.16l7.54-10.13a3.23 3.23 0 015.18 3.86l-7.54 10.13A3.22 3.22 0 011901.59 908zM1915.61 911.08a3.23 3.23 0 01-2.59-5.16l9-12.13a3.23 3.23 0 015.18 3.86l-9 12.13A3.22 3.22 0 011915.61 911.08zM1932.61 908.29a3.22 3.22 0 01-2.58-5.15l9-12.14a3.23 3.23 0 015.18 3.86l-9 12.13A3.22 3.22 0 011932.61 908.29zM1923.25 881.24c-1 0-2 0-3-.11-10.38-.72-21.51-5.16-31.35-12.48s-17.28-16.73-21-26.46c-3.86-10.23-3.14-19.67 2-26.58 10.28-13.81 35.51-12.49 56.25 2.95 9.84 7.33 17.28 16.72 21 26.46 3.85 10.23 3.14 19.67-2 26.58C1940.5 877.87 1932.79 881.24 1923.25 881.24zm-31.33-68.88c-7.16 0-13.2 2.32-16.76 7.1-3.78 5.09-4.19 12.35-1.14 20.45 3.24 8.59 9.91 17 18.77 23.55s18.78 10.59 27.94 11.23c8.61.6 15.47-1.87 19.26-7h0c3.78-5.08 4.19-12.34 1.14-20.44-3.24-8.6-9.9-17-18.76-23.56C1912.3 816.24 1901.17 812.36 1891.92 812.36zM1977.9 754.16a29.06 29.06 0 01-18.54-6.1h0c-17.16-13.73-13.87-46.71 7.35-73.52 13.2-16.67 30.64-27.71 46.65-29.53 9-1 17 1 23 5.83 17.16 13.74 13.87 46.72-7.34 73.52-13.21 16.68-30.64 27.72-46.65 29.54A40.41 40.41 0 011977.9 754.16zm39.91-102.95a34.13 34.13 0 00-3.73.21c-14.33 1.63-30.15 11.78-42.31 27.13-19 24-22.77 53-8.37 64.47h0c4.68 3.74 11 5.29 18.25 4.46 14.34-1.63 30.15-11.77 42.31-27.13 19-24 22.77-52.94 8.37-64.46A22.77 22.77 0 002017.81 651.21z" class="colorb86242 svgShape"/><path fill="#b86242" d="M1989.84,765.27a23.74,23.74,0,0,1-15.12-4.92c-5-4-15.73-12.51-15.73-12.51l4-5.06s10.78,8.55,15.74,12.52c3.59,2.87,8.35,4,14.14,3.33,13.66-1.55,30.11-12.58,42.94-28.78,18.69-23.62,24.12-51.86,11.85-61.68-5.74-4.59-16.44-13.24-16.44-13.24l4.06-5s10.69,8.63,16.42,13.22c15.51,12.4,10.75,43.47-10.83,70.73-13.85,17.5-32,29.45-47.27,31.19A35.09,35.09,0,0,1,1989.84,765.27Z" class="colorb86242 svgShape"/><path fill="#b86242" d="M2037.14 730.83a3.17 3.17 0 01-2-.71l-8.45-6.75a3.23 3.23 0 014-5l8.44 6.75a3.23 3.23 0 01-2 5.75zM2047.71 715.48a3.19 3.19 0 01-2-.71l-8.44-6.75a3.23 3.23 0 114-5l8.44 6.76a3.23 3.23 0 01-2 5.75zM2053.62 701.5a3.21 3.21 0 01-2-.71l-10.11-8.09a3.23 3.23 0 014-5.05l10.11 8.1a3.23 3.23 0 01-2 5.75zM2055.69 687.45a3.21 3.21 0 01-2-.71L2042.74 678a3.23 3.23 0 114-5l10.93 8.74a3.23 3.23 0 01.5 4.54A3.19 3.19 0 012055.69 687.45zM2024.33 745.31a3.21 3.21 0 01-2-.71l-8.44-6.76a3.23 3.23 0 114-5l8.44 6.76a3.23 3.23 0 01-2 5.75zM2012.64 754.66a3.21 3.21 0 01-2-.71l-8.44-6.75a3.23 3.23 0 014-5l8.44 6.75a3.23 3.23 0 01-2 5.75zM2000.67 761.7a3.21 3.21 0 01-2-.71l-10.12-8.09a3.23 3.23 0 014-5l10.11 8.09a3.23 3.23 0 01-2 5.76zM1985 764.36a3.19 3.19 0 01-2-.71l-10.12-8.09a3.23 3.23 0 114-5L1987 758.6a3.23 3.23 0 01-2 5.76zM1980 739a18.63 18.63 0 01-11.88-3.88h0c-11.91-9.53-8.59-33 7.56-53.36 10.24-12.94 23.75-21.79 35.25-23.1 5.81-.66 11 .62 14.82 3.71 11.9 9.52 8.58 33-7.57 53.36-10.24 12.94-23.75 21.79-35.25 23.1A26.87 26.87 0 011980 739zm33.91-74.06a19.68 19.68 0 00-2.25.14c-9.85 1.12-21.7 9.05-30.92 20.69-13.44 17-17.38 37.27-8.59 44.3h0c2.53 2 5.91 2.81 10 2.34 9.85-1.12 21.7-9 30.92-20.69 13.44-17 17.38-37.27 8.59-44.31A12.16 12.16 0 002013.91 664.9zM1132.92 1442.53H1132c-14.5-.23-29.8-5.8-43.06-15.68s-23-22.94-27.37-36.77c-4.49-14.21-2.86-27.55 4.61-37.58s19.76-15.46 34.68-15.18c14.5.23 29.8 5.8 43.07 15.68s23 22.94 27.36 36.77c4.5 14.2 2.86 27.55-4.61 37.58C1159.36 1437.16 1147.4 1442.53 1132.92 1442.53zm-33-98.75c-12.39 0-22.51 4.45-28.57 12.58-6.19 8.32-7.48 19.6-3.63 31.77 4 12.55 12.87 24.46 25.06 33.54s26.16 14.19 39.32 14.4c12.72.32 23.2-4.27 29.39-12.59h0c6.19-8.31 7.48-19.59 3.63-31.76-4-12.55-12.87-24.46-25.06-33.54s-26.15-14.19-39.31-14.4z" class="colorb86242 svgShape"/><path fill="#b86242" d="M1124.49,1458c-14.33,0-31.1-5.74-46.16-17-27.71-20.63-39.32-52.1-25.87-70.16,5.12-6.88,14.65-19.79,14.65-19.79l5.2,3.84s-9.54,12.92-14.67,19.81c-11.32,15.2-.31,42.62,24.54,61.12s54.28,21.2,65.6,6c4.43-6,14.08-18.81,14.08-18.81L1167,1427s-9.63,12.84-14.06,18.79C1146.83,1454,1136.52,1458,1124.49,1458Z" class="colorb86242 svgShape"/><path fill="#b86242" d="M1080.68 1436.81a3.17 3.17 0 01-1.93-.64 3.23 3.23 0 01-.66-4.52l7.55-10.12a3.23 3.23 0 115.17 3.86l-7.54 10.13A3.2 3.2 0 011080.68 1436.81zM1066.47 1424.43a3.19 3.19 0 01-1.92-.64 3.24 3.24 0 01-.67-4.52l7.54-10.13a3.23 3.23 0 015.18 3.86l-7.53 10.13A3.24 3.24 0 011066.47 1424.43zM1057.45 1411.81a3.17 3.17 0 01-1.93-.64 3.23 3.23 0 01-.66-4.52l9-12.13a3.23 3.23 0 015.18 3.86l-9 12.13A3.21 3.21 0 011057.45 1411.81zM1052.46 1397.77a3.23 3.23 0 01-2.59-5.16l9.76-13.11a3.23 3.23 0 015.18 3.87l-9.76 13.1A3.21 3.21 0 011052.46 1397.77zM1097.08 1447.48a3.23 3.23 0 01-2.59-5.16l7.54-10.13a3.23 3.23 0 015.18 3.86l-7.54 10.13A3.24 3.24 0 011097.08 1447.48zM1111.26 1453.15a3.23 3.23 0 01-2.58-5.16l7.54-10.13a3.23 3.23 0 015.18 3.86l-7.54 10.13A3.24 3.24 0 011111.26 1453.15zM1125.29 1456.28a3.23 3.23 0 01-2.59-5.16l9-12.13a3.23 3.23 0 015.18 3.86l-9 12.13A3.22 3.22 0 011125.29 1456.28zM1142.3 1453.49a3.17 3.17 0 01-1.93-.64 3.22 3.22 0 01-.66-4.52l9-12.13a3.23 3.23 0 015.18 3.86l-9 12.13A3.22 3.22 0 011142.3 1453.49zM1132.93 1426.44c-1 0-2 0-3-.11-10.38-.72-21.51-5.16-31.35-12.48s-17.28-16.73-20.95-26.46c-3.85-10.23-3.14-19.67 2-26.58 10.29-13.81 35.52-12.48 56.25 3 9.84 7.33 17.28 16.72 20.94 26.46 3.86 10.23 3.15 19.67-2 26.57h0C1150.18 1423.07 1142.47 1426.44 1132.93 1426.44zm-31.32-68.88c-7.17 0-13.21 2.32-16.77 7.11-3.78 5.08-4.19 12.34-1.14 20.44 3.24 8.59 9.91 17 18.77 23.56s18.78 10.58 27.94 11.22c8.65.62 15.47-1.87 19.26-7h0c3.79-5.09 4.19-12.35 1.14-20.44-3.24-8.6-9.9-17-18.76-23.56C1122 1361.44 1110.85 1357.56 1101.61 1357.56zM474.41 1011.79c-14.32 0-27-5.17-34.75-15.54s-9.36-24-4.74-38.64c4.51-14.23 14.51-27.67 28.17-37.84s29.4-15.91 44.33-16.14c15.22-.26 28 5.3 35.66 15.61 15.59 20.94 5.08 55.24-23.43 76.47C505.26 1006.43 489 1011.79 474.41 1011.79zm34-101.71h-.85c-13.58.21-28 5.49-40.57 14.86s-21.77 21.66-25.87 34.61c-4 12.57-2.64 24.23 3.76 32.83h0c13.46 18.08 45.29 17.24 70.95-1.86s35.57-49.35 22.1-67.43C531.63 914.69 521.17 910.08 508.37 910.08z" class="colorb86242 svgShape"/><path fill="#b86242" d="M483.05,1027.84c-12.36,0-22.95-4.15-29.26-12.62-4.56-6.12-14.49-19.36-14.49-19.37l5.17-3.87s9.94,13.25,14.5,19.39c11.7,15.7,42.09,12.94,67.74-6.17s37-47.42,25.31-63.13c-5.28-7.09-15.11-20.41-15.11-20.41l5.2-3.84s9.82,13.31,15.1,20.39c13.82,18.57,1.87,50.94-26.64,72.17C515.06,1021.93,497.79,1027.84,483.05,1027.84Z" class="colorb86242 svgShape"/><path fill="#b86242" d="M528.2 1006a3.21 3.21 0 01-2.59-1.3l-7.77-10.44a3.23 3.23 0 015.18-3.86l7.77 10.44a3.23 3.23 0 01-2.59 5.16zM542.85 993.2a3.24 3.24 0 01-2.6-1.3l-7.77-10.44a3.23 3.23 0 015.18-3.86L545.43 988a3.23 3.23 0 01-2.58 5.16zM552.14 980.2a3.22 3.22 0 01-2.59-1.3l-9.31-12.5a3.23 3.23 0 015.18-3.86l9.31 12.5a3.23 3.23 0 01-2.59 5.16zM557.28 965.72a3.2 3.2 0 01-2.59-1.3l-10.06-13.5a3.23 3.23 0 015.18-3.86l10.06 13.51a3.22 3.22 0 01-2.59 5.15zM511.31 1017a3.24 3.24 0 01-2.6-1.3l-7.77-10.43a3.23 3.23 0 015.18-3.86l7.77 10.43a3.23 3.23 0 01-2.58 5.16zM496.68 1022.8a3.22 3.22 0 01-2.59-1.3l-7.77-10.44a3.23 3.23 0 015.18-3.86l7.77 10.44a3.23 3.23 0 01-2.59 5.16zM482.23 1026a3.22 3.22 0 01-2.59-1.3l-9.31-12.51a3.23 3.23 0 015.18-3.86l9.31 12.51a3.23 3.23 0 01-2.59 5.16zM464.7 1023.15a3.2 3.2 0 01-2.59-1.3l-9.31-12.5a3.23 3.23 0 115.18-3.85l9.31 12.49a3.22 3.22 0 01-.66 4.52A3.17 3.17 0 01464.7 1023.15zM474.43 995.18c-9.5 0-17.69-3.23-22.59-9.8h0c-5.28-7.1-6-16.79-2-27.3 3.78-10 11.43-19.68 21.56-27.22 21.32-15.88 47.25-17.26 57.82-3.07s1.82 38.65-19.5 54.53C498.22 990.84 485.45 995.18 474.43 995.18zM457 981.52c8.44 11.33 30.32 9.36 48.79-4.38S532.43 943 524 931.65s-30.32-9.36-48.79 4.39c-9.14 6.81-16 15.45-19.36 24.32-3.16 8.38-2.74 15.89 1.18 21.16zM357.1 859.77a27.53 27.53 0 01-12.85-3.07h0c-19.49-10.16-22.62-43.16-7-73.55 9.74-18.91 24.72-33.11 40.07-38 8.64-2.74 16.84-2.3 23.71 1.28 19.49 10.17 22.62 43.17 7 73.56-9.74 18.91-24.72 33.11-40.08 38A35.69 35.69 0 01357.1 859.77zm31.1-109.91a29.72 29.72 0 00-8.9 1.46C365.55 755.69 352 768.69 343 786.11c-14 27.24-12.13 56.34 4.22 64.87h0c5.31 2.77 11.8 3.06 18.77.86 13.75-4.37 27.31-17.37 36.28-34.79 14-27.24 12.13-56.34-4.22-64.87A21.18 21.18 0 00388.2 749.86z" class="colorb86242 svgShape"/><path fill="#b86242" d="M372.06,868.25a22.24,22.24,0,0,1-10.37-2.45c-5.63-2.94-17.84-9.25-17.84-9.25l3-5.74s12.23,6.32,17.87,9.26c4.06,2.12,8.94,2.3,14.51.53,13.11-4.16,27.12-18.15,36.58-36.52,13.79-26.78,13.67-55.54-.26-62.81-6.52-3.4-18.69-9.82-18.69-9.82l3-5.71s12.15,6.41,18.67,9.81c17.6,9.18,18.92,40.58,3,71.49-10.21,19.84-25.68,35.06-40.36,39.72A30.29,30.29,0,0,1,372.06,868.25Z" class="colorb86242 svgShape"/><path fill="#b86242" d="M416.62 824.85a3.21 3.21 0 01-1.49-.36l-9.58-5a3.23 3.23 0 013-5.73l9.59 5a3.23 3.23 0 01-1.5 6.09zM424 807.75a3.18 3.18 0 01-1.49-.36l-9.59-5a3.23 3.23 0 013-5.73l9.58 5a3.23 3.23 0 01-1.49 6.09zM427.14 792.89a3.23 3.23 0 01-1.5-.37l-11.48-6a3.23 3.23 0 013-5.73l11.48 6a3.23 3.23 0 01-1.49 6.09zM426.45 778.71a3.22 3.22 0 01-1.49-.37l-12.4-6.47a3.22 3.22 0 013-5.72L428 772.62a3.23 3.23 0 01-1.5 6.09zM406.84 841.53a3.22 3.22 0 01-1.49-.37l-9.58-5a3.23 3.23 0 013-5.73l9.59 5a3.23 3.23 0 01-1.5 6.1zM397.18 853a3.15 3.15 0 01-1.49-.36l-9.59-5a3.23 3.23 0 013-5.73l9.58 5a3.23 3.23 0 01-1.49 6.09zM386.79 862.17a3.22 3.22 0 01-1.5-.36l-11.48-6a3.23 3.23 0 013-5.73l11.48 6a3.23 3.23 0 01-1.49 6.09zM372 867.8a3.21 3.21 0 01-1.49-.36l-11.49-6a3.23 3.23 0 013-5.73l11.49 6a3.23 3.23 0 01-1.5 6.09zM358.52 844.21a17.44 17.44 0 01-8.18-1.94c-13.52-7-14.78-30.68-2.87-53.81 7.55-14.67 19.1-26 30.13-29.47 5.59-1.77 10.87-1.5 15.25.79 13.52 7.05 14.78 30.69 2.88 53.81-7.56 14.68-19.11 26-30.14 29.47A23.41 23.41 0 01358.52 844.21zm26.16-79.92a17.1 17.1 0 00-5.12.86c-9.46 3-19.55 13.07-26.35 26.27-9.92 19.26-9.86 39.92.12 45.12h0c2.87 1.5 6.33 1.62 10.3.36 9.46-3 19.55-13.06 26.35-26.27 9.92-19.25 9.86-39.92-.11-45.12A11 11 0 00384.68 764.29zM2220.59 842.08a3.23 3.23 0 01-3.23-3.23V818.48a3.23 3.23 0 116.46 0v20.37A3.23 3.23 0 012220.59 842.08zM2253.45 859.21h-18.51a3.23 3.23 0 010-6.46h18.51a3.23 3.23 0 010 6.46zM2220.59 895.78a3.23 3.23 0 01-3.23-3.23c0-15.09-.23-18.92-.32-19.86a3.16 3.16 0 01.12-2.26 3.25 3.25 0 013.63-1.89c3 .63 3 .63 3 24A3.23 3.23 0 012220.59 895.78zM2205.31 857.82h-18.06a3.23 3.23 0 010-6.46h18.06a3.23 3.23 0 110 6.46zM1079.76 380.24a3.19 3.19 0 01-2.28-.95c-.22-.22-22.17-22.14-39.14-33.24-16.37-10.72-28.43-11.5-28.54-11.5a3.25 3.25 0 01-2.86-2.08l-11.31-29.82c-70.49-10.28-148.46 29.8-149.4 30.29a3.22 3.22 0 01-4.2-1.11l-58.46-90.08a3.24 3.24 0 011.48-4.74c.81-.34 82.73-33 193.35 24 72.2 37.22 104 114 104.36 114.8a3.24 3.24 0 01-3 4.45zm-67.48-51.91c4.52.67 15.63 3.16 29.6 12.31 9 5.91 19.16 14.53 27 21.62a267.3 267.3 0 00-32.59-46.8 2.22 2.22 0 01-.6-.24 122 122 0 00-32.67-11.3zM791.22 241.68l54.65 84.2c16.83-8.3 106.84-49.64 179.15-22.48a201.22 201.22 0 00-49.58-36.67C880.65 217.87 808.08 236.24 791.22 241.68z" class="colorb86242 svgShape"/><path fill="#b86242" d="M858.78,308a3.23,3.23,0,0,1-2.71-1.49L810.68,236a3.23,3.23,0,1,1,5.43-3.5L860,300.67c15.28-6.82,94.24-39,162.76-8.28a3.23,3.23,0,0,1-2.64,5.89c-73.11-32.75-159,9-159.89,9.4A3.13,3.13,0,0,1,858.78,308Z" class="colorb86242 svgShape"/><path fill="#b86242" d="M952 270.57a37.16 37.16 0 01-14.6-3.18c-12.1-5.21-19.92-15.55-18.59-24.58a3.23 3.23 0 016.39.94c-.9 6.09 5.45 13.7 14.75 17.71 10 4.29 20.57 3.2 23.65-2.42a3.23 3.23 0 115.67 3.1C966.26 267.63 959.74 270.57 952 270.57zM644.7 564.18c-36.73 0-59.07-8.48-59.5-8.64a3.26 3.26 0 01-1.88-2 3.18 3.18 0 01.32-2.72l57.4-92a3.25 3.25 0 014.19-1.18c.95.48 80.4 39.54 151.39 27.9l10.89-30.32a3.21 3.21 0 012.83-2.13c.11 0 12.27-1 28.62-12.12 16.93-11.52 38.69-34 38.91-34.27a3.23 3.23 0 015.34 3.41c-.3.78-31.07 78.87-103.27 117.73C726.36 556.7 679.19 564.17 644.7 564.18zm-53.4-13.42c17.06 5.16 90.83 22.41 185.57-28.58a203.26 203.26 0 0049.52-38c-18.67 7.42-38.62 10.27-58.23 10.27-56.61 0-110.48-23.72-123.17-29.7zm221.62-91.48L804 484.16a123.11 123.11 0 0032.83-12 3.1 3.1 0 01.63-.26 270.09 270.09 0 0032.16-48c-7.81 7.33-18 16.28-27 22.45C828.63 455.82 817.45 458.53 812.92 459.28z" class="colorb86242 svgShape"/><path fill="#b86242" d="M613.85,561.06a3.14,3.14,0,0,1-1.69-.48,3.23,3.23,0,0,1-1-4.45l44.56-72a3.21,3.21,0,0,1,4.12-1.22c.88.41,88.43,41,161.59,6.62a3.23,3.23,0,1,1,2.75,5.85c-68.63,32.22-149,1.13-164.45-5.46L616.6,559.53A3.22,3.22,0,0,1,613.85,561.06Z" class="colorb86242 svgShape"/><path fill="#b86242" d="M723.33 550a3.23 3.23 0 01-3.18-2.7c-1.5-9.08 6.2-19.65 18.31-25.12 13.38-6.05 27.24-4 32.22 4.72a3.23 3.23 0 01-5.61 3.21c-3.22-5.64-14-6.55-24-2-9.34 4.22-15.62 12-14.6 18.17a3.21 3.21 0 01-3.19 3.76zM779.59 915.58a3.16 3.16 0 01-1.47-.36 3.21 3.21 0 01-1.73-2.45c0-.27-4.76-29.41-53.5-59.39-13.23-8.14-27.24-12-42.08-16-10.51-2.87-21.37-5.84-33.14-10.53-35-14-73.16-36.81-73.54-37a3.23 3.23 0 01.35-5.72L690 732.83a3.26 3.26 0 013.14.29c.14.1 14.29 9.67 41.74 20.39 6.08 2.37 13.27 4.43 20.89 6.6 14 4 29.85 8.52 45.14 16.7 12.5 6.7 17.93 15.43 22.72 23.13s9.21 14.8 20.15 19.8c47.81 21.84 76.7 52.38 77.91 53.67a3.23 3.23 0 01-3.46 5.24c-.21-.07-21.8-7.54-54.63 1.34-33.61 9.1-82 34.94-82.45 35.2A3.16 3.16 0 01779.59 915.58zM582.87 787.42c11.68 6.73 40.38 22.71 67.19 33.41 11.43 4.56 22.12 7.48 32.45 10.3 15.3 4.18 29.75 8.13 43.76 16.74 41 25.21 52.41 49.91 55.46 59.7 12.06-6.28 50.89-25.89 80.14-33.81 20.5-5.56 36.76-5.12 46.9-3.73a274.63 274.63 0 00-67.72-44.41c-12.7-5.81-17.91-14.18-22.94-22.27-4.79-7.69-9.31-15-20.29-20.84-14.68-7.86-30.18-12.28-43.86-16.19-7.77-2.21-15.11-4.31-21.47-6.79-23.34-9.12-37.11-17.3-41.51-20.08z" class="colorb86242 svgShape"/><path fill="#b86242" d="M781.41 881.35a3.23 3.23 0 01-2.9-1.8c-.06-.13-8-15.24-44.59-37.71-9.8-6-20.24-8.88-31.29-11.9A225 225 0 01677.72 822c-26.31-10.49-54.9-27.62-55.18-27.79a3.23 3.23 0 01.35-5.72l86.47-38.37a3.24 3.24 0 013.13.29c.11.07 10.65 7.19 31.1 15.18 4.52 1.76 9.89 3.3 15.58 4.92 10.51 3 22.43 6.4 33.94 12.57 9.56 5.12 13.69 11.75 17.33 17.6s6.76 10.88 14.73 14.52c35.55 16.24 58.41 30.22 58.64 30.36a3.23 3.23 0 01-1.54 6c-.17 0-17.48.91-42.51 7.69s-56.65 21.64-57 21.79A3.19 3.19 0 01781.41 881.35zm-150.12-89.5c9.46 5.4 29.78 16.58 48.82 24.17a217.92 217.92 0 0024.22 7.69c11.51 3.14 22.38 6.11 33 12.63 29.83 18.34 41.46 32.08 45.34 37.66 8.17-3.73 34-15.19 55.43-21a260 260 0 0133.81-6.89c-9.65-5.45-27-14.77-49.39-25-9.74-4.45-13.7-10.82-17.54-17-3.52-5.67-6.85-11-14.89-15.32-10.9-5.84-22.46-9.14-32.66-12.06-5.84-1.66-11.36-3.24-16.16-5.12-16.92-6.6-27.17-12.56-30.85-14.86zM1297.74 1381.1a3.22 3.22 0 01-2.84-1.69c-.06-.11-7.2-12.63-29.34-23.59-23-11.4-67-25-67.41-25.12a3.23 3.23 0 01-.8-5.8c.35-.22 34.59-22.22 64.22-34.92 26.35-11.3 29.82-15.94 36.14-24.36a120.27 120.27 0 0110.85-12.92h0c6-6.21 11-9 19.26-13.62 6-3.38 13.54-7.58 24.71-14.84 26.24-17.08 57.08-45.24 57.39-45.53a3.21 3.21 0 013.36-.62c.2.08 20.44 8 46.45 17.07 25.74 9 62.45 13.4 62.82 13.44a3.24 3.24 0 011.51 5.83c-.52.37-52.38 38.17-82.85 74-22.58 26.51-37.25 40.92-59.51 51.15-15.63 7.17-23.89 11.49-31.86 15.67-3.45 1.8-6.8 3.56-10.6 5.46l-40 20.1A3.28 3.28 0 011297.74 1381.1zm-91-54.46c13.36 4.3 43.44 14.35 61.69 23.39s27 19 30.42 23.67l37.49-18.81c3.77-1.89 7.08-3.63 10.5-5.41 8.05-4.22 16.38-8.58 32.16-15.83 21.3-9.77 34.88-23.16 57.29-49.46 24.56-28.84 62.64-58.85 77.62-70.24-12.4-1.81-37-6-56.3-12.69-21.58-7.5-39.22-14.26-44.82-16.43-6.55 5.88-33.38 29.62-56.74 44.82-11.35 7.38-19.28 11.82-25.08 15.07-8 4.48-12.42 7-17.77 12.47h0a114.57 114.57 0 00-10.32 12.3c-6.76 9-10.83 14.44-38.76 26.42C1242.24 1305.29 1217.74 1319.87 1206.74 1326.64zm104.14-71.7h0z" class="colorb86242 svgShape"/><path fill="#b86242" d="M1311.09,1354.79a3.2,3.2,0,0,1-2.65-1.38s-4.47-5.86-21.5-14.29c-17.84-8.84-48.46-16.57-48.77-16.65a3.23,3.23,0,0,1-2.36-2.37,3.27,3.27,0,0,1,1-3.2c1-.83,23.62-20.43,47-30.46,20.39-8.74,23.06-12.31,27.91-18.79a95.87,95.87,0,0,1,8.54-10.15h0c4.77-4.92,8.69-7.11,15.18-10.74,4.7-2.64,10.55-5.91,19.25-11.57,20.45-13.31,44.47-35.25,44.71-35.47a3.21,3.21,0,0,1,3.36-.62c.16.06,15.94,6.26,36.23,13.31a253.43,253.43,0,0,0,39.31,10,3.23,3.23,0,0,1,1.33,5.86c-.32.22-32.65,22.37-56.34,50.18l-2,2.38c-15.65,18.4-28,32.93-45.54,41-17.29,7.94-62.7,32.36-63.16,32.61A3.21,3.21,0,0,1,1311.09,1354.79Zm-65.22-37c10.07,2.77,30.26,8.73,43.93,15.5,12.88,6.37,19.17,11.45,22,14.2,9.41-5,46-24.6,61.31-31.61,16.22-7.45,27.58-20.8,43.31-39.29l2-2.38c17.92-21,40.61-38.86,51.39-46.85a257.73,257.73,0,0,1-32.89-8.88c-16.36-5.7-29.82-10.84-34.6-12.68-5.64,5.05-26.14,23.11-44.06,34.76-8.87,5.78-15.08,9.25-19.62,11.79-6.18,3.46-9.59,5.37-13.69,9.6h0a88.44,88.44,0,0,0-8,9.54c-5.33,7.12-8.56,11.42-30.53,20.85C1270.13,1299.36,1253.74,1311.57,1245.87,1317.83Z" class="colorb86242 svgShape"/><path fill="#b86242" d="M1360.76 1296.86c-11.36 0-21.38-5.22-24.72-13.67a16 16 0 01.81-13.4c3.21-6.24 10-11 18.5-13.13 14.76-3.64 29.62 1.87 33.85 12.54a16 16 0 01-.81 13.41c-3.22 6.24-10 11-18.5 13.13h0A38.13 38.13 0 011360.76 1296.86zm8.35-4.25h0zm-4.83-30.57a30.64 30.64 0 00-7.38.89c-6.63 1.63-12 5.3-14.31 9.82a9.53 9.53 0 00-.54 8.07c3 7.47 15 11.42 26.29 8.65h0c6.63-1.63 12-5.3 14.31-9.82a9.53 9.53 0 00.54-8.07C1380.88 1265.73 1373 1262 1364.28 1262zM748.79 821.37a46.42 46.42 0 01-13.93-1.94c-6.44-2.07-10.22-5.61-10.65-10h0c-.43-4.38 2.59-8.59 8.5-11.88 5.1-2.82 12-4.78 19.37-5.5s14.53-.15 20.08 1.63c6.44 2.07 10.22 5.62 10.65 10s-2.59 8.59-8.51 11.87c-5.09 2.83-12 4.78-19.37 5.51Q751.81 821.37 748.79 821.37zm9.48-23.16c-1.81 0-3.67.09-5.55.27-6.54.65-12.54 2.33-16.88 4.73-3.31 1.84-5.36 4-5.2 5.6h0c.15 1.56 2.58 3.31 6.19 4.47 4.73 1.52 10.93 2 17.47 1.36s12.53-2.32 16.87-4.73c3.32-1.84 5.36-4 5.21-5.59s-2.59-3.32-6.2-4.48A39.69 39.69 0 00758.27 798.21zM1598.67 741.71a3.23 3.23 0 01-2.86-4.73c.24-.45 24.57-46 72.64-86.2 11.17-9.33 14.08-19.11 17.16-29.46 3.21-10.81 6.54-22 18.7-33.53 15-14.2 31.78-24.39 46.61-33.39 8.1-4.92 15.75-9.56 22-14.24 28.3-21 41.61-36.58 41.74-36.74a3.27 3.27 0 013-1.1l149.17 22.57a3.23 3.23 0 011.85 5.42c-.36.39-37 38.67-72.94 65.79-12 9.1-23.61 15.94-34.79 22.56-15.85 9.37-30.82 18.22-43.54 31.82-46.93 50.18-43.08 85.47-43 85.82a3.21 3.21 0 01-1 2.8 3.27 3.27 0 01-2.89.77c-.64-.15-64-14.55-105.68-14.55h-.52c-40.84.12-63.48 15.65-63.7 15.81A3.24 3.24 0 011598.67 741.71zm66.07-22.85c36.18 0 88.19 10.61 103 13.81.22-11.48 4.88-43.83 44.89-86.6 13.36-14.28 28.71-23.36 45-33 11-6.53 22.43-13.27 34.19-22.15 28.28-21.36 57.06-49.76 67.79-60.62L1818.41 509c-3.89 4.3-17.18 18.2-41.61 36.38-6.52 4.85-14.3 9.57-22.53 14.57-14.55 8.83-31 18.84-45.51 32.56-10.91 10.35-13.85 20.23-17 30.68-3.22 10.81-6.54 22-19.21 32.58a327.73 327.73 0 00-65.2 74.39c10.9-4.91 30.06-11.19 56.82-11.27z" class="colorb86242 svgShape"/><path fill="#b86242" d="M1758.25,701.1a2.56,2.56,0,0,1-.55-.05c-.42-.07-41.5-7.19-72.61-7.13s-51.31,4.53-51.52,4.57a3.23,3.23,0,0,1-3.06-5.36c.22-.23,22.11-23.51,57.91-53.41,8.17-6.83,10.21-13.7,12.58-21.67,2.32-7.81,5-16.67,14.23-25.46,11.27-10.7,23.9-18.36,35-25.12,6-3.67,11.76-7.14,16.43-10.61,21.09-15.7,31-27.27,31.12-27.39a3.26,3.26,0,0,1,2.94-1.1l111.7,16.9a3.23,3.23,0,0,1,1.85,5.43c-.27.29-27.77,29-54.71,49.35A263.78,263.78,0,0,1,1833.47,617c-11.81,7-23,13.59-32.42,23.69-35.18,37.6-39.59,57.63-39.62,57.83A3.27,3.27,0,0,1,1758.25,701.1Zm-72.57-13.64c26.82,0,60.4,5.14,70.28,6.75,2.44-7.16,11.17-26.74,40.37-58,10.08-10.78,21.63-17.61,33.86-24.84a262.13,262.13,0,0,0,25.52-16.53c20.21-15.27,40.78-35.35,49.54-44.17L1801.53,535c-3.28,3.58-13.22,13.81-31,27-4.91,3.66-10.75,7.2-16.93,11-10.86,6.59-23.18,14.07-33.95,24.28-8,7.61-10.18,14.9-12.48,22.62-2.44,8.22-5,16.71-14.63,24.79-23.75,19.83-41.3,36.71-50.37,45.76a306.86,306.86,0,0,1,42.88-3Z" class="colorb86242 svgShape"/><path fill="#b86242" d="M1758.53 624.27c-13.54 0-23.49-4.42-24.75-11.79-1.62-9.43 11.8-19 31.2-22.36 8.67-1.49 17.12-1.41 23.8.22 7.59 1.85 12.23 5.57 13.07 10.49 1.62 9.43-11.8 19-31.2 22.37A73 73 0 011758.53 624.27zm18.52-28.75a65.38 65.38 0 00-11 1c-17.14 2.93-26.65 10.65-25.93 14.9s12.26 8.37 29.42 5.44 26.65-10.66 25.92-14.91c-.36-2.12-3.52-4.15-8.23-5.3A43.28 43.28 0 001777.05 595.52zM2116.06 437.91c-11.72 0-83.07-3.3-153.28-80-49.07-53.59-52-127.9-52-128.65a3.23 3.23 0 016.16-1.45c.12.25 11.72 25.37 22.48 39.88 10.34 14 20.12 18.31 20.22 18.35a3.25 3.25 0 012 2.94l.25 28.28C2017.58 347.51 2095 338 2096 337.92a3.24 3.24 0 013.56 2.5L2120.65 434a3.23 3.23 0 01-3 3.94C2117.41 437.9 2116.88 437.91 2116.06 437.91zm-178-128.86a178.43 178.43 0 0029.47 44.51c63.53 69.39 129.36 77 145.9 77.79l-19.59-86.69C2076.53 346.45 1990.19 352.84 1938.07 309.05zm-6.41-15.1a3.44 3.44 0 01.4.37 108.2 108.2 0 0023.26 19.18l-.2-22.49c-3.72-2.06-12.17-7.63-20.93-19.46-5.34-7.2-10.76-16.66-15-24.68A238.31 238.31 0 001931.66 294z" class="colorb86242 svgShape"/><path fill="#b86242" d="M2093,434.32a3.24,3.24,0,0,1-3.15-2.53l-15.61-70.35c-15.8,1.15-90.53,3.83-138.89-43.51a3.22,3.22,0,1,1,4.51-4.61c51,49.87,135.72,41.54,136.58,41.44a3.26,3.26,0,0,1,3.49,2.51l16.23,73.12a3.23,3.23,0,0,1-2.45,3.85A3.43,3.43,0,0,1,2093,434.32Z" class="colorb86242 svgShape"/><path fill="#b86242" d="M2004.8 393.19a3.19 3.19 0 01-1.54-.4 3.23 3.23 0 01-1.29-4.38c2.56-4.69-.37-12.85-6.82-19-6.9-6.55-15.91-8.91-20.09-5.27a3.23 3.23 0 11-4.25-4.87c6.86-6 19.24-3.62 28.79 5.46 8.64 8.21 12 19.46 8 26.75A3.21 3.21 0 012004.8 393.19zM669.18 1421a3.23 3.23 0 01-3.19-2.75c0-.33-6-34.29-63.42-68.38-15.56-9.24-31.94-13.45-49.28-17.9-12.23-3.14-24.89-6.39-38.6-11.62-40.91-15.59-85.53-41.39-86-41.65A3.23 3.23 0 01429 1273l133.17-61.54a3.21 3.21 0 013.13.24c.17.1 16.81 11 48.93 23 7.13 2.66 15.53 4.92 24.42 7.31 16.29 4.38 34.76 9.35 52.6 18.55 14.52 7.49 20.67 17 26.61 26.26 5.67 8.82 11 17.16 24 22.82 55.8 24.48 90.89 60.45 91.24 60.81a3.23 3.23 0 01-3.37 5.3c-.25-.09-25.59-8.43-63.72 2.52-38.9 11.18-94.65 42.07-95.2 42.39A3.25 3.25 0 01669.18 1421zM437.41 1276.23c13.08 7.3 47.52 25.91 79.58 38.13 13.37 5.1 25.85 8.3 37.91 11.4 17.8 4.57 34.61 8.88 51 18.6 48.83 29 62 57.87 65.42 68.63 13.19-7.12 59.13-31.25 92.88-41 24.8-7.13 44.3-6.53 55.86-4.94a319.33 319.33 0 00-80.82-51.56c-14.71-6.45-20.86-16-26.8-25.24-5.74-8.91-11.15-17.32-24.14-24-17.22-8.89-35.34-13.76-51.32-18-9-2.44-17.58-4.73-25-7.5-27.67-10.31-43.84-19.67-48.7-22.66z" class="colorb86242 svgShape"/><path fill="#b86242" d="M670.69,1381.27a3.22,3.22,0,0,1-2.87-1.76c-.09-.16-9.64-17.64-52.65-43.19-11.55-6.86-23.76-10-36.69-13.32a259.34,259.34,0,0,1-29-8.73c-30.69-11.7-64.16-31-64.49-31.24a3.23,3.23,0,0,1,.26-5.73L585,1231.21a3.28,3.28,0,0,1,3.14.24c.12.09,12.53,8.2,36.48,17.13,5.29,2,11.56,3.66,18.2,5.44,12.24,3.29,26.12,7,39.55,14,11.07,5.71,15.94,13.27,20.23,20s8.14,12.63,17.59,16.78c41.54,18.21,68.31,34,68.57,34.17a3.24,3.24,0,0,1-1.44,6c-.2,0-20.33,1.37-49.33,9.7s-65.48,26.17-65.84,26.35A3.32,3.32,0,0,1,670.69,1381.27Zm-177-100.75c10.67,5.9,35.19,19,58.09,27.72a252.81,252.81,0,0,0,28.3,8.5c13.39,3.44,26,6.69,38.38,14,35.62,21.16,49.13,37,53.4,43.13,9-4.26,39.2-18.29,64.3-25.51a300.62,300.62,0,0,1,40.61-8.82c-11-6-31.85-16.94-59.21-28.93-11.24-4.93-15.91-12.19-20.43-19.21-4.23-6.57-8.23-12.78-17.76-17.7-12.82-6.62-26.34-10.25-38.27-13.46-6.79-1.82-13.2-3.55-18.78-5.63-20.11-7.5-32.15-14.34-36.23-16.82Z" class="colorb86242 svgShape"/><path fill="#b86242" d="M630.74 1312.23a52.57 52.57 0 01-15-2c-7.3-2.22-11.63-6.12-12.18-11h0c-.56-4.85 2.78-9.62 9.4-13.43 5.81-3.33 13.69-5.7 22.2-6.67s16.72-.43 23.12 1.52c7.3 2.22 11.63 6.12 12.18 11s-2.79 9.62-9.41 13.43c-5.8 3.33-13.68 5.7-22.19 6.67A73 73 0 01630.74 1312.23zm12.6-27.08a65.55 65.55 0 00-7.44.43c-7.65.87-14.65 3-19.71 5.86-4.06 2.33-6.44 5-6.2 7.09h0c.23 2 3.16 4.16 7.64 5.53 5.58 1.69 12.86 2.14 20.51 1.28s14.65-2.95 19.71-5.86c4-2.33 6.43-5 6.2-7.09s-3.16-4.17-7.64-5.53A45.86 45.86 0 00643.34 1285.15zM2021.05 1239.5a3.37 3.37 0 01-1-.17c-.61-.21-61.68-20.9-102.43-25-39.94-4-63.67 8.88-63.9 9a3.23 3.23 0 01-4.26-4.62c.28-.42 28.7-42.56 79.83-77 11.85-8 15.69-17.25 19.75-27.06 4.24-10.26 8.63-20.87 21.73-30.94 16.09-12.38 33.57-20.66 49-28 8.42-4 16.38-7.75 23-11.68 29.82-17.73 44.42-31.58 44.56-31.71a3.23 3.23 0 013.05-.8L2234 1048.8a3.23 3.23 0 011.29 5.58c-.4.34-40.16 34.08-78.05 57-12.71 7.69-24.72 13.21-36.34 18.54-16.45 7.57-32 14.71-45.81 26.72-51 44.32-50.81 79.22-50.8 79.56a3.24 3.24 0 01-3.24 3.32zm-119-32.43c5.06 0 10.45.26 16.17.83 35.39 3.57 85.53 19.32 99.89 24 1.4-11.27 9.3-42.42 52.72-80.15 14.52-12.63 30.47-20 47.36-27.72 11.45-5.26 23.29-10.7 35.68-18.19 29.76-18 60.73-42.78 72.39-52.37l-135.86-35.19c-4.28 3.83-18.69 16.08-44.39 31.36-6.88 4.09-15 7.92-23.52 12-15.14 7.16-32.29 15.28-47.84 27.24-11.72 9-15.59 18.38-19.69 28.29-4.25 10.26-8.64 20.87-22.11 29.94a323.49 323.49 0 00-71.23 66A130 130 0 011902.07 1207.07z" class="colorb86242 svgShape"/><path fill="#b86242" d="M2012.37,1200.19a3.27,3.27,0,0,1-.87-.13c-.4-.11-39.81-11.27-70.31-14.34s-50.66-.77-50.86-.75a3.22,3.22,0,0,1-2.49-5.64c.23-.21,24-20.77,62.07-46.4,8.67-5.85,11.37-12.36,14.49-19.9s6.55-15.83,16.53-23.5c12.11-9.32,25.24-15.54,36.83-21,6.29-3,12.23-5.79,17.15-8.72,22.24-13.22,33.12-23.53,33.23-23.64a3.23,3.23,0,0,1,3-.79l107.58,27.87a3.24,3.24,0,0,1,1.28,5.59c-.3.25-30.12,25.55-58.55,42.74a261.7,261.7,0,0,1-27.28,13.93c-12.27,5.63-23.86,11-34.12,19.88-38.22,33.21-44.56,52.35-44.62,52.53A3.27,3.27,0,0,1,2012.37,1200.19Zm-102.27-22.54c8.45,0,19.22.38,31.74,1.64,26.32,2.65,59,11.17,68.63,13.79,3.14-6.8,13.7-25.06,45.38-52.59,11-9.53,23-15,35.66-20.87a257.75,257.75,0,0,0,26.64-13.59c21.26-12.85,43.36-30.35,52.88-38.13l-99.77-25.85c-3.6,3.19-14.36,12.18-33.05,23.29-5.18,3.08-11.25,6-17.69,9-11.29,5.34-24.09,11.4-35.65,20.3-8.61,6.62-11.47,13.53-14.5,20.85-3.23,7.79-6.56,15.86-16.85,22.79-25.15,16.93-44,31.61-53.8,39.57C1902.62,1177.74,1906.11,1177.65,1910.1,1177.65Z" class="colorb86242 svgShape"/><path fill="#b86242" d="M2027.16 1125.36a55.74 55.74 0 01-18.36-2.8c-7.26-2.59-11.44-6.72-11.76-11.63s3.27-9.57 10.12-13.09c6-3.1 14.09-5.12 22.73-5.69s16.9.36 23.28 2.64c7.26 2.58 11.43 6.71 11.76 11.63h0c.33 4.92-3.27 9.56-10.12 13.09-6 3.09-14.09 5.11-22.73 5.69C2030.42 1125.31 2028.78 1125.36 2027.16 1125.36zm7.7-26.91c-1.49 0-3 0-4.54.15-7.78.51-15 2.28-20.21 5-4.22 2.18-6.76 4.83-6.62 6.92s3 4.38 7.48 6c5.56 2 12.91 2.8 20.68 2.27s15-2.29 20.21-5c4.22-2.17 6.76-4.82 6.62-6.91h0c-.13-2.09-3-4.38-7.48-6A49.22 49.22 0 002034.86 1098.45zM1943 1344.85h-16a3.23 3.23 0 110-6.46h16a3.23 3.23 0 010 6.46zM1914.58 1330.05a3.24 3.24 0 01-3.23-3.24V1309.2a3.23 3.23 0 116.46 0v17.61A3.23 3.23 0 011914.58 1330.05z" class="colorb86242 svgShape"/><path fill="#b86242" d="M1943 1344.86h-16a3.23 3.23 0 010-6.46h16a3.23 3.23 0 010 6.46zM1914.58 1376.48a3.23 3.23 0 01-3.23-3.23c0-12.87-.18-16.24-.26-17.09a3.16 3.16 0 01.13-2.2 3.26 3.26 0 013.63-1.9c3 .62 3 .62 3 21.19A3.22 3.22 0 011914.58 1376.48zM1901.37 1343.66h-15.61a3.23 3.23 0 010-6.46h15.61a3.23 3.23 0 010 6.46zM623.7 1069.85a28.86 28.86 0 01-8.73-1.43c-12.21-3.87-24.1-15.12-31.81-30.1-12.64-24.56-10.11-50.29 5.77-58.57 5.55-2.89 12.16-3.25 19.11-1 12.2 3.87 24.09 15.13 31.8 30.1 12.65 24.56 10.12 50.29-5.76 58.57A22.23 22.23 0 01623.7 1069.85zm-24.37-86.11a15.88 15.88 0 00-7.42 1.74c-12.47 6.5-13.82 28.88-3 49.88 6.83 13.28 17.57 23.59 28 26.91 5.28 1.68 10.18 1.45 14.17-.63 12.48-6.5 13.82-28.88 3-49.88-6.84-13.28-17.57-23.59-28-26.91A22.46 22.46 0 00599.33 983.74z" class="colorb86242 svgShape"/><path fill="#b86242" d="M612,1076.5a24.08,24.08,0,0,1-7.34-1.21c-11.67-3.7-23.95-15.76-32-31.46-12.64-24.56-11.47-49.58,2.67-57,5.1-2.66,14.62-7.68,14.62-7.68l3,5.72s-9.54,5-14.65,7.69c-10.58,5.52-10.53,27.62.1,48.27,7.32,14.23,18.15,25.07,28.24,28.27,4.18,1.33,7.83,1.2,10.84-.37l14-7.26,3,5.74s-9.57,5-14,7.25A18.14,18.14,0,0,1,612,1076.5Z" class="colorb86242 svgShape"/><path fill="#b86242" d="M577.06 1042.5a3.23 3.23 0 01-1.5-6.1l7.51-3.92a3.23 3.23 0 113 5.73l-7.51 3.92A3.22 3.22 0 01577.06 1042.5zM571.25 1029.1a3.23 3.23 0 01-1.5-6.1l7.51-3.92a3.23 3.23 0 013 5.73l-7.51 3.92A3.22 3.22 0 01571.25 1029.1zM568.82 1017.45a3.23 3.23 0 01-1.5-6.09l9-4.69a3.23 3.23 0 113 5.72l-9 4.69A3.22 3.22 0 01568.82 1017.45zM569.36 1006.34a3.23 3.23 0 01-1.5-6.09l9.72-5.07a3.23 3.23 0 013 5.73l-9.72 5.07A3.21 3.21 0 01569.36 1006.34zM584.72 1055.56a3.23 3.23 0 01-1.5-6.1l7.51-3.91a3.23 3.23 0 113 5.73l-7.51 3.91A3.22 3.22 0 01584.72 1055.56zM592.29 1064.52a3.23 3.23 0 01-1.5-6.09l7.52-3.92a3.23 3.23 0 113 5.73l-7.51 3.91A3.22 3.22 0 01592.29 1064.52zM600.43 1071.73a3.23 3.23 0 01-1.49-6.09l9-4.69a3.23 3.23 0 113 5.73l-9 4.69A3.15 3.15 0 01600.43 1071.73zM622.58 1057.66a19 19 0 01-5.75-.94c-8.81-2.79-18-11.77-24-23.43-9.51-18.47-8.39-37.4 2.55-43.1 3.61-1.88 7.92-2.11 12.48-.66 8.95 2.84 17.93 11.6 24 23.43 9.51 18.47 8.39 37.4-2.55 43.11h0A14.45 14.45 0 01622.58 1057.66zm5.24-4.46h0zM602.09 995a8 8 0 00-3.74.88c-7.49 3.9-7.39 19.66.2 34.41 5.25 10.19 13 17.94 20.24 20.24 2.92.93 5.46.85 7.53-.23 7.49-3.91 7.4-19.67-.2-34.42-5.24-10.18-13-17.94-20.23-20.23A12.58 12.58 0 00602.09 995zM1774.7 988.91a22.83 22.83 0 01-10.65-2.54h0c-16-8.38-18.7-35.42-5.9-60.28 7.94-15.42 20.19-27 32.75-31 7.14-2.26 13.93-1.89 19.63 1.08 16.06 8.38 18.7 35.42 5.9 60.28-7.94 15.42-20.18 27-32.74 31A29.6 29.6 0 011774.7 988.91zm-7.67-8.27c4.14 2.16 9.23 2.39 14.69.65 10.8-3.43 21.89-14.08 29-27.8 11.18-21.71 9.77-44.85-3.15-51.59-4.14-2.16-9.22-2.38-14.69-.65-10.8 3.43-21.89 14.08-28.95 27.8-11.18 21.71-9.77 44.85 3.14 51.59z" class="colorb86242 svgShape"/><path fill="#b86242" d="M1786.8,995.77a18.54,18.54,0,0,1-8.67-2.06c-4.54-2.36-14.42-7.46-14.42-7.46l3-5.75s9.89,5.11,14.44,7.48c3.13,1.64,6.92,1.77,11.25.39,10.44-3.3,21.63-14.49,29.2-29.2,11-21.34,11-44.2,0-49.92-5.27-2.75-15.11-7.94-15.11-7.94l3-5.71s9.82,5.18,15.08,7.92c14.54,7.58,15.72,33.33,2.7,58.61-8.33,16.17-21,28.59-33,32.4A25,25,0,0,1,1786.8,995.77Z" class="colorb86242 svgShape"/><path fill="#b86242" d="M1822.81 960.7a3.22 3.22 0 01-1.49-.37l-7.75-4a3.23 3.23 0 013-5.73l7.75 4a3.23 3.23 0 01-1.5 6.1zM1828.8 946.88a3.22 3.22 0 01-1.49-.37l-7.75-4a3.23 3.23 0 013-5.73l7.75 4a3.23 3.23 0 01-1.5 6.1zM1831.3 934.87a3.15 3.15 0 01-1.48-.37l-9.29-4.84a3.23 3.23 0 113-5.72l9.28 4.83a3.23 3.23 0 01-1.5 6.1zM1830.75 923.41a3.22 3.22 0 01-1.49-.37l-10-5.23a3.23 3.23 0 013-5.73l10 5.23a3.23 3.23 0 01-1.5 6.1zM1814.91 974.17a3.21 3.21 0 01-1.49-.36l-7.75-4a3.23 3.23 0 013-5.73l7.75 4a3.23 3.23 0 01-1.5 6.09zM1807.1 983.41a3.21 3.21 0 01-1.49-.36l-7.75-4a3.23 3.23 0 013-5.73l7.75 4a3.23 3.23 0 01-1.49 6.09zM1798.7 990.85a3.21 3.21 0 01-1.49-.36l-9.28-4.84a3.23 3.23 0 113-5.73l9.28 4.84a3.22 3.22 0 01-1.49 6.09zM1775.86 976.35a14.78 14.78 0 01-6.9-1.64h0c-11.23-5.86-12.36-25.33-2.59-44.32 6.18-12 15.66-21.25 24.72-24.12 4.68-1.49 9.11-1.25 12.8.67 11.23 5.86 12.37 25.32 2.58 44.32-6.17 12-15.65 21.25-24.71 24.12A19.36 19.36 0 011775.86 976.35zm-3.92-7.37c2.17 1.13 4.81 1.21 7.86.24 7.49-2.37 15.51-10.39 20.93-20.92 7.86-15.26 7.94-31.58.17-35.63-2.16-1.13-4.81-1.21-7.85-.25-7.49 2.38-15.51 10.4-20.94 20.92-7.85 15.27-7.93 31.59-.17 35.64z" class="colorb86242 svgShape"/><path fill="#618a86" fill-rule="evenodd" d="M1475.5 1481.39s3.82-14.17 25.69-29.47c23.69-16.57 68.13-33.21 106.4-47.15 53.49-19.46 114.65-32.39 144.61-34.46a28.67 28.67 0 0118.91 5.58s21 37.09 61.84 129.11 101.39 239 101.39 239-85.83 46.51-174.67 65.06c-100.46 21-180.69 9.09-180.69 9.09s-44.07-124.47-69.65-208.24S1475.5 1481.39 1475.5 1481.39zM661.79 1222s4.6-6.8 21.5-8.48c34.21-3.4 100.66-1.45 154.15 11 48.87 11.37 101.34 27.32 127.35 44.52 16.52 10.92 16.69 27.36 16.69 27.36s2 22.2-20.82 152.65S890.1 1818.2 890.1 1818.2s-91.34 24.57-217.34-.32C577.92 1799.15 511.18 1741 511.18 1741s62.33-234.47 100-364.23S661.79 1222 661.79 1222z" class="color618a86 svgShape"/><path fill="#cdd0da" fill-rule="evenodd" d="M1719,211c22.57-23.74,57.56-58.84,73.93-46.59,7.79,5.83,17.25,25.93,17.88,67.42,1.86,122-25.73,353.31-25.73,353.31s-4.92-.36-11.3-6.84-18.48-14.67-18.48-14.67-3.23.84-7.77,5.28c-7.37,7.21-17.87,19.32-21.24,18.46-6.62-1.68-23.14-26.93-23.14-26.93s-3.8-.82-10.88,4.33c-6.08,4.42-14.68,15-24.17,14.32-5.64-.38-14.17-26.94-20-26.32-10.7,1.11-20,17.9-29.53,17.68-5.78-.13-11.48-29.75-16.3-30.43-9.57-1.35-18.77,13.55-24.42,17.13-8.23,5.23-10.71.25-10.71.25S1654.08,279.2,1719,211Z" class="colorcdd0da svgShape"/><path fill="#ffffff" fill-rule="evenodd" d="M1157.92,225.15s61.89-105,85-109.28c35.65-6.63,98.15-5.16,168.3.17,94.07,7.14,202.53,19.17,277.84,30,56.77,8.13,94.44,16.44,94.44,16.44s-54.12,51.22-111.36,158.27-117.59,269.92-117.59,269.92l-13.1,113.93-127.21,388.7s-14.47,60-20.26,93.59c-5.13,29.75-8.48,36.2-15.13,37.19-9.66,1.44-19.24-21-41.55-26.93-5.46-1.44-28.24,20.54-34.63,19.14-8-1.75-24.65-20.67-33.64-22.59-6.07-1.31-27,14.16-33.41,12.9-7.65-1.52-24.17-19.4-32-21-6.68-1.38-22.52,15.5-29.2,14.21-9.37-1.81-23-18.57-32.06-20.53-6-1.3-20.51,9.84-26.27,8.64-5.52-1.15-13.79-13.89-19-15.07-6.45-1.46-22,6.65-27.86,5.36-6.63-1.44-16.14-12.87-21.82-14.35-9.12-2.37-24.3,9.49-30.62,7.28-9.32-3.26-12-14.15-22.5-17.4s-19.46,4.4-19.46,4.4l-14.36,7.59L835.3,1127s-9.07-106.78,39.51-339.33S1157.92,225.15,1157.92,225.15Z" class="colorfff svgShape"/><path fill="#ffddc0" fill-rule="evenodd" d="M875.5 521.15s20.41-32.1 39.77-64.87c16.71-28.3 31.49-56.85 50.84-86.74 20.72-32 59.23-54.85 88.5-78.94 25.23-20.78 50.49-44.68 67.66-57.29 12.83-9.42 20-10.89 25.56-8.93 7.56 2.64 21.88 15 14.66 40.6-3.18 11.29-14.75 34.84-27.16 50-19.44 23.69-44 41-65.35 67.71-18.58 23.26-34.8 62.77-34.8 62.77s20.83-2.33 25.37 14.4c3.11 11.46-7.35 39.22-13.82 53.49-15.89 35.07-75.13 72.42-75.13 72.42S946.69 645.39 928 707.91s-35.53 138.75-35.53 138.75-10.77 49.28-22.29 117.43-23.78 155.18-23.78 155.18 3.8-.62 10.7-2.27c5.8-1.38 13.87-4.13 22.8-1.77 8 2.12 16.81 16.82 26.22 19.61 9.18 2.73 22.84-2.07 31.87.85 11.62 3.77 16.21 17.22 22.86 21.85 6.42 4.47 15.13.17 15.13.17A574.14 574.14 0 00956 1231.06c-7.78 39.37-11.15 84.12-11.15 84.12s-18.07 5-48.7 6.32c-29.08 1.27-69.87-.89-102.77-9-33.45-8.19-68.5-25.49-89.69-39.22-21.6-14-29-24.3-29-24.3s33.18-112.4 39.51-169.89c5.79-52.68-9.61-82.8-3.9-173.53 2.56-40.48 13.33-131.94 25.38-174.76 10-35.54 24-53.39 40.32-78.67 17.33-26.91 37.08-60.84 52.95-86C848.28 535.55 875.5 521.15 875.5 521.15zM1388.67 568.66c8.27-13.65 31.85-30.29 47-10.91 16.22 20.69 27.2 67.7 39.79 103 15.36 43 30.72 73 30.72 73l49-142.23s37.82 53.45 87.89 111.53c23.79 27.6 54.7 63.24 75.1 93.16 13.62 20 21.36 32.45 23.58 56.53 5.69 61.56-3.69 135.56-9.65 214.44-6.85 90.61-10.58 185.18-5.06 233.14 5.55 48.27 35.48 101.39 35.48 101.39s-36.51 47.52-95.28 71.38-139.55 26.9-139.55 26.9-17.33-63.55-39.54-131.81c-18.6-57.19-39.1-107.42-56.23-155.85-3.79-10.71-8-26.67-11.15-35.79-13.1-37.25-5.3-85.81-5.3-85.81s1.86-41.74 4.4-90.2c2.15-41 5.75-83.6-.74-142.7-7-63.33-31.83-117.64-40.82-175.52C1371.89 640.42 1376.56 588.65 1388.67 568.66z" class="colorffddc0 svgShape"/><path d="M674.68,1253.44a3.28,3.28,0,0,1-1-.15,3.24,3.24,0,0,1-2.1-4.07c45.48-142.68,41.39-194.71,37.07-249.8-1.77-22.52-3.6-45.8-2.28-76C711.33,810,731.55,716.21,748.24,691c17.11-25.82,28.34-44.62,39.21-62.81,13.64-22.84,26.53-44.41,49.6-77.58,18.41-26.49,49-39.79,84.51-55.2,11.24-4.88,22.85-9.92,34.62-15.63,10.92-5.31,20.91-10.68,30.57-15.87,34.1-18.34,61-32.81,74-9.09,10.07,18.46-7.53,68.91-42.43,101.45-13.87,12.94-27.65,21.54-41,29.86-21.94,13.7-40.89,25.52-54.61,53-13.65,27.36-14.89,55.34-16.76,97.7-1.18,26.55-2.64,59.6-7.91,100.53a3.23,3.23,0,1,1-6.41-.83c5.24-40.66,6.7-73.56,7.87-100,1.84-41.63,3.17-71.71,17.43-100.29,14.54-29.15,35.15-42,57-55.64,13.07-8.16,26.58-16.59,40-29.1,34.88-32.53,49-79.23,41.16-93.64-9.43-17.28-28.85-7.88-65.24,11.69-9.26,5-19.77,10.63-30.81,16-11.89,5.77-23.57,10.84-34.86,15.75-34.57,15-64.42,28-81.79,53-22.94,33-35.77,54.46-49.36,77.21-10.9,18.25-22.17,37.12-39.36,63.05-15.86,23.93-36,118.32-40.79,229.11-1.3,29.81.51,52.89,2.27,75.21,4.37,55.74,8.51,108.39-37.35,252.28A3.24,3.24,0,0,1,674.68,1253.44Z" fill="#000000" class="color000 svgShape"/><path d="M876.21 523.13a3.26 3.26 0 01-1.74-.51 3.22 3.22 0 01-1-4.46c6.49-10.12 11.62-18.07 15.84-24.61 19.77-30.61 19.77-30.61 47.25-80.11 5.18-9.33 11.34-20.41 18.78-33.78 16.35-29.38 51.58-56.89 85.65-83.5 12.7-9.91 24.7-19.28 35.34-28.47 5.3-4.56 10.29-9 15-13.17 22.95-20.33 39.49-35.05 54-34 5.73.41 10.7 3.16 15.2 8.44 7.94 9.32 14.41 35.14-11.75 72.75-13.74 19.75-25.88 31-38.74 42.93-11.71 10.85-23.82 22.08-37.65 40.62a268.16 268.16 0 00-34.61 62.18 3.23 3.23 0 01-6.09-2.16c.45-1.27 11.32-31.43 35.52-63.88 14.18-19 26.51-30.45 38.44-41.5 12.59-11.68 24.49-22.7 37.83-41.88 30-43.06 12.87-64 12.13-64.87-3.31-3.89-6.82-5.91-10.73-6.18-11.82-.87-28.33 13.83-49.28 32.39-4.75 4.21-9.77 8.65-15.09 13.24-10.76 9.28-22.82 18.7-35.58 28.67-33.56 26.21-68.27 53.31-84 81.54-7.44 13.37-13.59 24.45-18.77 33.78-27.59 49.69-27.59 49.69-47.47 80.47-4.22 6.54-9.35 14.48-15.84 24.59A3.22 3.22 0 01876.21 523.13zM1377.76 1227.1a8.56 8.56 0 01-4.65-1.44c-2.48-1.58-5.51-4.46-9-7.79-7.47-7.1-17.71-16.84-26.48-17.1h-.08c-2.76 0-8.77 4.3-13.61 7.76-7.62 5.44-14.84 10.59-20.83 9.81-7-.91-12.45-6-17.74-10.87-5.49-5.09-10.67-9.89-17.37-10.62-3.09-.31-8.4 2.86-13.07 5.68-6.25 3.78-12.72 7.7-18.56 6.83-6.31-.91-12.12-6.16-17.73-11.23-5.15-4.65-10.47-9.46-15.33-10.13-2.4-.34-7.62 3.81-11.41 6.83-5.9 4.7-11.47 9.12-16.84 8.29-5.78-.92-11.61-5.85-17.78-11.09-5.27-4.47-10.72-9.09-14.82-9.74-3.28-.52-6.9 1.54-10.71 3.73-4.46 2.57-9.51 5.46-15.17 4.5-4.15-.73-7.85-4.39-11.43-7.93-2.72-2.7-5.81-5.76-8-6.14-3.48-.61-7.48.74-11.73 2.18-4.85 1.65-9.86 3.35-15 2.38-4.63-.88-9-4.25-13.18-7.52-3.54-2.74-7.19-5.58-10.19-6.17-3.5-.69-8.59 1.37-13.53 3.34-5.76 2.3-11.72 4.69-16.94 3.59-4.3-.92-8.72-5.18-13.4-9.7-3.34-3.23-7.5-7.25-9.79-7.76-4.38-1-8.89.84-13.65 2.73-5.29 2.11-10.76 4.29-16.64 2.84-4.86-1.19-9.79-7-15-13.21-3.65-4.32-8.2-9.7-10.58-10.32-5.63-1.45-11-.81-16.19-.18-5.35.64-10.88 1.3-16.46-.38-6.15-1.86-9.91-6.27-13.55-10.54-4.24-5-7.9-9.26-15-9.52-8.15-.29-15.57 1.42-21 2.68-5.7 1.33-8.84 2.06-11 .07a4.35 4.35 0 01-1.36-4c3.51-27.66 7.8-58 11.45-81.07 40-253.17 82.08-373.83 114.23-450.66a3.23 3.23 0 116 2.49c-32 76.5-73.88 196.69-113.81 449.17-3.54 22.41-7.68 51.62-11.13 78.58 1.24-.23 2.83-.6 4.23-.92 5.77-1.34 13.66-3.2 22.69-2.85 9.91.37 15.08 6.43 19.64 11.79 3.18 3.72 6.18 7.24 10.51 8.55s8.7.76 13.82.14c5.52-.67 11.77-1.42 18.58.35 4.37 1.13 8.78 6.35 13.89 12.4 3.92 4.65 8.8 10.42 11.62 11.11 3.85 1 8.16-.76 12.71-2.57 5.2-2.07 11.1-4.43 17.42-3 4.09.9 8.37 5 12.9 9.42 3.46 3.34 7.77 7.5 10.25 8 3.28.71 8.33-1.31 13.21-3.26 5.8-2.32 11.81-4.72 17.16-3.68 4.5.88 8.78 4.2 12.91 7.41 3.6 2.8 7.32 5.68 10.42 6.27 3.44.67 7.46-.7 11.71-2.15 4.83-1.64 9.82-3.34 14.92-2.42 4.13.73 7.82 4.38 11.38 7.91 2.73 2.71 5.83 5.77 8 6.15 3.36.61 7-1.51 10.84-3.73 4.4-2.53 9.4-5.4 15-4.51 5.88.93 11.76 5.92 18 11.2 5.22 4.42 10.61 9 14.61 9.63 2.58.34 7.69-3.68 11.81-7 5.73-4.57 11.14-8.91 16.31-8.18 6.83.94 12.9 6.43 18.78 11.74 4.89 4.42 10 9 14.32 9.63 3.56.51 9.27-2.93 14.3-6 6.09-3.68 11.82-7.14 17.11-6.57 8.82 1 15.33 7 21.06 12.3 4.75 4.4 9.24 8.56 14.18 9.2 3.47.43 10.56-4.6 16.24-8.66 6.84-4.88 12.72-8.94 17.65-9 11.24.34 22.51 11.06 30.73 18.88a71 71 0 008 7 1.82 1.82 0 002 .23c4.6-2 9.58-16.09 10.54-21.73 4.27-25 12.79-66.81 22.79-111.72a3.23 3.23 0 016.31 1.41c-10 44.81-18.48 86.45-22.74 111.4 0 .22-4.68 22.29-14.29 26.55A8.35 8.35 0 011377.76 1227.1zM1507.42 738a3.4 3.4 0 01-.94-.14 3.24 3.24 0 01-2.16-4c39.16-128.91 79.19-237.73 119-323.42C1677.09 294.51 1728 212 1774.46 165.33c5.38-5.39 11.52-7.13 17.28-4.9 12.75 4.93 21 27.82 22.54 62.81 3.16 70.09-11.57 216.78-22.33 323.89l-3 30.27c-.34 3.37-1.23 8-5.06 9.41-4.83 1.77-9.8-3.06-16.07-9.17-4.46-4.34-11.21-10.88-14.16-9.75-1.81.7-5.59 4.55-8.93 7.94-7.49 7.63-15.25 15.52-21.94 13.13-5.13-1.81-8.66-7.61-12.4-13.75-3.11-5.1-6.63-10.87-10.12-11.85-2.12-.57-9.58 5.58-13.61 8.88-7.75 6.37-14.46 11.87-19.83 10-4.67-1.62-8.06-8-11.65-14.79-2.23-4.21-5.61-10.58-7.62-11.22s-8.75 5.31-12.35 8.51c-6.59 5.87-12.29 10.93-17.27 9-4.21-1.57-6.64-8.09-10.25-18.58-1.49-4.32-3.72-10.77-5.05-12.17-3.7-.92-9.91 5-14.93 9.74-5.84 5.51-11.4 10.73-16.74 10.28a7.61 7.61 0 01-2.8-.8q-29 79.23-57.63 173.48A3.24 3.24 0 011507.42 738zm192.69-181.15a6.91 6.91 0 011.87.25c6 1.66 10 8.3 13.9 14.71 2.84 4.68 6.08 10 9 11 2.81 1 10.86-7.19 15.18-11.57 5-5.1 8.23-8.29 11.17-9.44 6.82-2.68 14 4.35 21 11.14 2.81 2.74 7.42 7.23 9.29 7.66a10.3 10.3 0 00.91-3.91l3-30.28c10.74-106.91 25.45-253.33 22.31-323-1.69-37.48-10.62-54.06-18.42-57.08-3.33-1.28-6.82-.13-10.37 3.44-46 46.17-96.41 128-149.9 243.28C1609.6 455.28 1590 503 1570.44 556a1.46 1.46 0 001 .64c2.66.16 7.65-4.64 11.77-8.54 7.07-6.67 14.36-13.56 21.69-11.09 3.55 1.2 5.47 6.35 8.83 16.11 1.64 4.74 4.68 13.57 6.5 14.68 1.64.15 7.27-4.88 10.62-7.86 6.71-6 13-11.61 18.6-9.85 4.53 1.44 7.7 7.43 11.38 14.36 2.44 4.6 5.79 10.92 8.06 11.7 2 .62 9.57-5.56 13.61-8.88C1689.24 561.74 1695.15 556.89 1700.11 556.89z" fill="#000000" class="color000 svgShape"/><path d="M1156.49 230.48a3.18 3.18 0 01-1.59-.42 3.23 3.23 0 01-1.21-4.4l2-3.54c12.88-22.39 52.19-84.91 79.25-105.2 37.3-28 482.81 25.68 552.56 42.06a3.23 3.23 0 01-1.47 6.29c-68.24-16-512.2-69.44-547.22-43.19-26 19.55-65.68 82.67-77.51 103.25l-2 3.52A3.2 3.2 0 011156.49 230.48zM1526.36 1500.67a3.23 3.23 0 01-3.12-2.42c-32.46-124.41-55.74-183-74.44-230.13-14.4-36.27-25.77-64.91-35.68-110.46-3.73-17.18-1.7-58.55.89-110.93 2.35-47.78 5.28-107.24 4.38-163.9-.48-30.92-10.31-66.2-20.71-103.55-9.56-34.34-19.45-69.84-23.93-107.11-5.36-44.62 2.13-103.26 21.45-116.06 12.79-8.48 23.31-11.08 32.12-8 17.55 6.17 26.19 33.12 39.26 73.92 10.54 32.89 23.66 73.82 46.08 117.87 7.1 14 15.3 37.6 24 62.63 10 28.76 20.28 58.5 29.53 75.17 19.49 35.13 39.6 66 59.78 91.74a3.23 3.23 0 01-5.09 4c-20.38-26-40.68-57.17-60.34-92.6-9.52-17.16-19.92-47.16-30-76.18-8.61-24.82-16.73-48.27-23.64-61.82-22.66-44.51-35.86-85.72-46.47-118.83-12-37.56-20.73-64.69-35.25-69.79-6.78-2.38-15.42 0-26.41 7.28-15.15 10-24.19 63.44-18.61 109.9 4.43 36.78 14.25 72 23.74 106.15 10.52 37.76 20.45 73.42 20.95 105.18.91 56.87-2 116.44-4.39 164.31-2.56 51.91-4.58 92.9-1 109.25 9.78 45 21.07 73.45 35.36 109.44 18.77 47.27 42.13 106.1 74.69 230.89a3.22 3.22 0 01-2.31 3.94A3.3 3.3 0 011526.36 1500.67zM1574.22 814.26a3.24 3.24 0 01-2.76-1.54c-.35-.58-35.87-58.45-58-101.57a3.23 3.23 0 015.75-2.95c22 42.9 57.36 100.56 57.71 101.14a3.23 3.23 0 01-2.74 4.92zM1761.26 1404.35a3.23 3.23 0 01-3-2c-18.93-44.35-29.9-76.15-33.53-97.2-6.57-38.08-1.39-168.31 1.77-213.7 1.37-19.6 3.12-40.2 5-62 7.17-84.55 15.3-180.39-1.93-209.38-23-38.61-56.42-77.08-88.78-114.27-31.3-36-63.67-73.19-87.88-111.71a3.23 3.23 0 115.47-3.44c23.94 38.1 56.14 75.11 87.29 110.91 32.54 37.41 66.2 76.09 89.45 115.21 18.3 30.78 10.43 123.53 2.81 213.22-1.84 21.79-3.59 42.36-5 61.91-3.15 45.17-8.33 174.61-1.86 212.15 3.55 20.56 14.38 51.88 33.11 95.77a3.23 3.23 0 01-1.7 4.24A3.3 3.3 0 011761.26 1404.35z" fill="#000000" class="color000 svgShape"/><path d="M1560.42 876.34a3.23 3.23 0 01-3.23-3.17c-.54-29.57 22.14-79.92 23.1-82a3.23 3.23 0 115.89 2.67c-.23.51-23 51.15-22.53 79.26a3.23 3.23 0 01-3.17 3.29zM945 1317.36h-.21a3.22 3.22 0 01-3-3.42c0-.91 5.88-91.55 31.88-156.64a3.23 3.23 0 016 2.39c-25.61 64.12-31.38 153.74-31.43 154.64A3.23 3.23 0 01945 1317.36z" fill="#000000" class="color000 svgShape"/><path d="M881.25,1324.66a472.13,472.13,0,0,1-74.8-6c-72.4-11.85-150.43-65.3-148.71-92.58.41-6.43,5.12-14.25,25.23-15a3.15,3.15,0,0,1,3.34,3.11,3.22,3.22,0,0,1-3.11,3.34c-8.43.3-18.58,2.1-19,8.93-1.37,21.58,71.76,74.08,143.31,85.79,78.39,12.84,162.71,4.21,170.23-17.42,2.76-7.95-7.06-18.62-27.66-30a3.23,3.23,0,0,1,3.13-5.66c24.35,13.51,34.66,26.23,30.63,37.82C977.35,1315.62,932.88,1324.66,881.25,1324.66Z" fill="#000000" class="color000 svgShape"/><path d="M511.05 1745.24a3.37 3.37 0 01-.83-.1 3.24 3.24 0 01-2.3-4c5-19 122.59-466.58 151-520.16a3.23 3.23 0 015.71 3c-28.08 52.92-149.26 514.12-150.48 518.77A3.23 3.23 0 01511.05 1745.24zM889.76 1822.75a3.69 3.69 0 01-.65-.07 3.24 3.24 0 01-2.52-3.81c.91-4.41 90.65-442.07 91.74-526.53a3.22 3.22 0 013.22-3.19h.05a3.22 3.22 0 013.18 3.27c-1.09 85.08-88.15 509.71-91.86 527.75A3.23 3.23 0 01889.76 1822.75zM1531.72 1502.29c-27.11 0-48.44-4.27-56.19-14a11.32 11.32 0 01-2.17-9.26c1.74-10.09 15.13-23.56 36.73-37a3.23 3.23 0 013.41 5.49c-23.25 14.43-32.69 26.29-33.78 32.58a4.86 4.86 0 00.86 4.13c14 17.62 94.9 14.65 163.23-6 65.9-19.92 128.23-78.4 124.27-98.51-1.24-6.27-10.95-6.68-18.86-5.92a3.17 3.17 0 01-3.52-2.91 3.23 3.23 0 012.9-3.52c19.18-1.85 24.62 5 25.81 11.1 5 25.55-61.91 85.74-128.73 105.94C1609 1495.54 1565.8 1502.29 1531.72 1502.29z" fill="#000000" class="color000 svgShape"/><path d="M1935.77 1750.3a3.22 3.22 0 01-3-2c-51.6-124.37-141.6-337.85-164.7-370.25a3.23 3.23 0 115.26-3.75c23.47 32.92 113.7 246.9 165.4 371.52a3.23 3.23 0 01-3 4.47zM1579.13 1824.42a3.24 3.24 0 01-3.07-2.2c-43.06-128.71-95.87-292.33-102.91-340.83a3.23 3.23 0 016.39-.92c7 48 59.67 211.23 102.65 339.7a3.22 3.22 0 01-2 4.08A3 3 0 011579.13 1824.42zM1417.37 553.28a3.33 3.33 0 01-1.15-.21 3.22 3.22 0 01-1.87-4.16c75.21-199.26 173.4-377.19 214.48-412.26a3.23 3.23 0 114.2 4.91c-40.49 34.56-137.78 211.29-212.64 409.63A3.24 3.24 0 011417.37 553.28zM1274.37 1047.35a3.66 3.66 0 01-.57 0 3.23 3.23 0 01-2.62-3.74c.27-1.5 27.29-151.86 101.74-376.69a3.23 3.23 0 116.13 2c-74.29 224.34-101.24 374.29-101.51 375.77A3.22 3.22 0 011274.37 1047.35z" fill="#000000" class="color000 svgShape"/><path d="M1385.61 970.81a3.5 3.5 0 01-.65-.07c-216.91-44.63-462.23-77.15-464.68-77.48a3.23 3.23 0 11.84-6.4c2.46.32 248 32.88 465.14 77.55a3.23 3.23 0 01-.65 6.4zM1395.83 765a3.66 3.66 0 01-.65-.06C1178.39 720.36 976 706.05 974 705.91a3.23 3.23 0 01.44-6.44c2 .14 204.79 14.47 422 59.17a3.23 3.23 0 01-.65 6.39zM1389 568a3 3 0 01-.52 0c-144.73-23.3-278-35-321.76-38.85l-9.4-.83a3.23 3.23 0 01.58-6.44l9.39.83c43.84 3.85 177.26 15.57 322.22 38.91A3.23 3.23 0 011389 568zM1509.6 589.93a3 3 0 01-.66-.07c-20.23-4.16-41.58-8.27-63.44-12.21a3.23 3.23 0 011.14-6.36c21.92 4 43.32 8.07 63.6 12.24a3.23 3.23 0 01-.64 6.4zM1575.4 409.24a2.84 2.84 0 01-.58-.05c-214.83-38.55-436.9-56.66-439.12-56.84a3.23 3.23 0 11.52-6.43c2.22.17 224.59 18.3 439.75 56.91a3.23 3.23 0 01-.57 6.41zM1645.66 258.68a3.05 3.05 0 01-.52-.05c-214.83-35.25-422.55-48.9-424.63-49a3.23 3.23 0 01.42-6.45c2.08.13 210.1 13.8 425.25 49.11a3.23 3.23 0 01-.52 6.42zM1305.76 420.41a3.15 3.15 0 01-.61-.06c-77.8-14.82-187.62-20.56-188.72-20.62a3.23 3.23 0 01.33-6.45c1.1.06 111.36 5.82 189.6 20.73a3.23 3.23 0 01-.6 6.4zM1305.39 456.11a2.92 2.92 0 01-.51 0c-81.61-13-200.88-23.05-202.08-23.14a3.23 3.23 0 01.54-6.44c1.2.1 120.7 10.18 202.55 23.2a3.23 3.23 0 01-.5 6.42zM1317 496.2a3.79 3.79 0 01-.58-.05C1238 481.93 1090.24 470 1088.75 469.88a3.23 3.23 0 01-3-3.48 3.19 3.19 0 013.48-3c1.49.12 149.51 12.08 228.31 26.35a3.23 3.23 0 01-.57 6.41zM1411.11 263.65a3.12 3.12 0 01-.52 0C1327.16 250 1222.79 243 1221.74 243a3.23 3.23 0 01.43-6.45c1 .07 105.72 7.06 189.46 20.71a3.23 3.23 0 01-.52 6.42zM1406.11 299.35a3.92 3.92 0 01-.59-.05c-84.64-15.45-200.14-22.44-201.3-22.5a3.23 3.23 0 01-3-3.42 3.19 3.19 0 013.42-3c1.16.07 117.05 7.08 202.07 22.59a3.23 3.23 0 01-.57 6.41zM1405.48 336.93a4 4 0 01-.59-.05c-84-15.45-225.56-24.29-227-24.38a3.23 3.23 0 01-3-3.43 3.18 3.18 0 013.42-3c1.42.09 143.35 9 227.75 24.47a3.23 3.23 0 01-.58 6.41zM1450 176a2.59 2.59 0 01-.48 0C1363 163 1261 158.46 1260 158.42a3.24 3.24 0 01-3.09-3.37 3.29 3.29 0 013.37-3.09c1 0 103.27 4.55 190.13 17.58A3.23 3.23 0 011450 176zM1234.07 589a2.81 2.81 0 01-.5 0c-80-12.27-189.46-22.55-190.56-22.65a3.24 3.24 0 01-2.92-3.52 3.2 3.2 0 013.52-2.91c1.1.1 110.74 10.4 190.94 22.7a3.23 3.23 0 01-.48 6.42zM1234.61 625.22a3.12 3.12 0 01-.52 0c-81.64-13-209.45-26.51-210.73-26.65a3.23 3.23 0 11.68-6.42c1.28.13 129.26 13.68 211.07 26.69a3.23 3.23 0 01-.5 6.42zM1255.22 665a2.84 2.84 0 01-.58 0c-78.52-14.22-239.91-31.12-241.53-31.28a3.23 3.23 0 01.67-6.43c1.62.17 163.25 17.09 242 31.35a3.23 3.23 0 01-.57 6.41zM1256.4 700.84a2.75 2.75 0 01-.57-.05c-78.51-14.22-251-31.11-252.79-31.28a3.23 3.23 0 01.63-6.43c1.74.17 174.54 17.09 253.31 31.36a3.23 3.23 0 01-.58 6.4zM1173 769.13a2.7 2.7 0 01-.49 0c-80-12.27-189-24.37-190.1-24.49a3.23 3.23 0 01-2.86-3.56 3.27 3.27 0 013.57-2.86c1.09.12 110.2 12.24 190.37 24.53a3.23 3.23 0 01-.49 6.42zM1182.75 808.57a2.92 2.92 0 01-.51 0c-81.68-13-209.53-29.41-210.82-29.57a3.23 3.23 0 01.82-6.41c1.29.17 129.23 16.59 211 29.6a3.23 3.23 0 01-.51 6.42zM1201.56 850.44a3.79 3.79 0 01-.58-.05c-78.56-14.23-238.75-35.52-240.36-35.73a3.23 3.23 0 01.85-6.41c1.61.22 162 21.53 240.66 35.78a3.23 3.23 0 01-.57 6.41zM1200.35 887.45a2.84 2.84 0 01-.58-.05c-78.56-14.23-248.6-36.17-250.31-36.39a3.23 3.23 0 01.83-6.41c1.71.22 171.91 22.19 250.63 36.44a3.23 3.23 0 01-.57 6.41zM1143.31 974.83a2.7 2.7 0 01-.49 0c-80.12-12.28-205.38-32.2-206.64-32.4a3.23 3.23 0 011-6.38c1.25.2 126.5 20.11 206.6 32.4a3.23 3.23 0 01-.49 6.42zM1140.28 1014.27a2.94 2.94 0 01-.51 0c-82.68-13.15-211.53-33.83-211.53-33.83l1-6.38s128.83 20.69 211.51 33.84a3.23 3.23 0 01-.5 6.42zM1214.91 1128.34a2.92 2.92 0 01-.51 0c-82.68-13.15-204.24-32.62-204.24-32.62l1-6.38s121.56 19.47 204.23 32.62a3.23 3.23 0 01-.5 6.42zM1380.17 1036.25a3.34 3.34 0 01-.62-.06L1310 1022.57a3.23 3.23 0 111.24-6.34l69.57 13.62a3.23 3.23 0 01-.62 6.4zM1419.09 873.28a3.44 3.44 0 01-.63-.06L1348.9 859.6a3.23 3.23 0 011.24-6.34l69.57 13.62a3.23 3.23 0 01-.62 6.4zM1548.11 490.91a2.49 2.49 0 01-.47 0l-67.61-9.8a3.23 3.23 0 11.93-6.39l67.61 9.8a3.23 3.23 0 01-.46 6.43zM1619.6 331.15a3.73 3.73 0 01-.47 0l-67.61-9.8a3.23 3.23 0 01.92-6.4l67.61 9.81a3.23 3.23 0 01-.45 6.43zM1699.75 199.54a3.71 3.71 0 01-.47 0l-67.61-9.8a3.23 3.23 0 11.92-6.4l67.62 9.81a3.23 3.23 0 01-.46 6.42z" fill="#000000" class="color000 svgShape"/></g></svg>