<svg xmlns="http://www.w3.org/2000/svg" viewBox="0 0 480 480"><path fill="#7d8395" d="M348.87,359.69c-3.65,3.77-15.61,7.67-23.21,7.67s-11.38-3.89-15.03-7.66c-3.52-3.63-6.84-7.06-13.52-7.06s-10.01,3.43-13.52,7.05c-3.66,3.77-7.44,7.67-15.03,7.67s-11.38-3.89-15.03-7.66c-3.52-3.63-6.84-7.06-13.52-7.06s-10.01,3.43-13.52,7.05c-3.65,3.77-7.44,7.67-15.03,7.67s-11.37-3.9-15.03-7.67c-3.52-3.62-6.84-7.05-13.52-7.05s-10.01,3.43-13.52,7.05c-3.65,3.77-7.44,7.67-15.03,7.67s-19.55-3.9-23.2-7.67c-3.38-3.47,9-147.17,9-147.17,0-55.16,44.71-99.86,99.86-99.86,27.58,0,52.55,11.18,70.61,29.25,18.07,18.07,29.25,43.03,29.25,70.62,0,0,12.38,143.7,9,147.17Z" class="color7d8395 svgShape"/><path fill="#fafafa" d="M226.11,234.67c-.52-.08-.98,.37-.9,.89,1.54,9.46,7.57,14.76,14.79,14.76s13.25-5.3,14.79-14.76c.08-.52-.38-.97-.9-.89-2.44,.38-8.67,1.25-13.89,1.25s-11.45-.87-13.89-1.25Z" class="colorfafafa svgShape"/><circle cx="216.15" cy="210.78" r="10.09" fill="#fafafa" class="colorfafafa svgShape"/><circle cx="263.85" cy="210.78" r="10.09" fill="#fafafa" class="colorfafafa svgShape"/></svg>